<svg id="Layer_1" data-name="Layer 1" xmlns="http://www.w3.org/2000/svg" viewBox="0 0 512 512"><g id="onboarding_parking"><ellipse id="Ellipse_61" data-name="Ellipse 61" cx="264.13" cy="412.1" rx="71.82" ry="7.94" style="fill:#73bf44;opacity:0.100000001490116;isolation:isolate"/><path id="Path_123" data-name="Path 123" d="M457.23,313.2c-10.72,22-32.48,36.72-55,46.43a210.15,210.15,0,0,1-96.78,16.06q-8.67-.57-17.28-1.84a218.91,218.91,0,0,1-57.8-16.76q-8-3.58-15.61-7.77a200.58,200.58,0,0,1-24.39-15.87q-2.91-2.22-5.75-4.55c-1.31-1.08-2.61-2.18-3.93-3.24a50,50,0,0,0-8.84-6c-1-.48-2-.92-3-1.3-10.12-3.83-21.78-2.38-32.32.6-8,2.25-15.8,5.37-23.82,7.59a80.16,80.16,0,0,1-10.85,2.29,58.06,58.06,0,0,1-24.4-2.11l-.68-.21c-1.12-.35-2.24-.74-3.36-1.16l-.67-.26c-1.08-.41-2.13-.85-3.16-1.33l-.67-.3c-1.08-.5-2.13-1-3.16-1.58-.37-.19-.74-.4-1.1-.6a65.71,65.71,0,0,1-15.8-12.24l-.4-.4c-.64-.69-1.27-1.39-1.88-2.11l-.68-.81c-.72-.88-1.42-1.78-2.09-2.69l-.29-.4a58,58,0,0,1-6.81-12.25c0-.14-.11-.27-.15-.4-.54-1.38-1-2.78-1.48-4.2-.18-.6-.35-1.21-.5-1.81a3.18,3.18,0,0,1-.14-.53C32.24,274.74,32,265.66,32,256.64v-3.15c.07-14.58.29-29.42,2.45-43.8a1.57,1.57,0,0,1,0-.3,133.29,133.29,0,0,1,3-14.38,104.31,104.31,0,0,1,5-14.58,135.22,135.22,0,0,1,20.24-32.05c20.21-24.69,46.74-45.46,77.8-53.2a114.91,114.91,0,0,1,97.64,21c8.23,6.52,15.62,14.24,24.86,19.24,8.07,4.35,17.52,6.15,26.16,2.73,7.14-2.81,11.79-4.24,19.8-3.81a166.73,166.73,0,0,1,48.55,10.11l1.88.71c40.63,15.47,75.55,46.21,93.7,85.7.48,1,.95,2.1,1.4,3.16C465.26,259.19,469.16,288.69,457.23,313.2Z" style="fill:#73bf44;opacity:0.100000001490116;isolation:isolate"/><path id="Path_124" data-name="Path 124" d="M116.21,172.46V332a82.59,82.59,0,0,1-11.32,2.41,60.43,60.43,0,0,1-25.46-2.22l-.7-.22c-1.18-.37-2.35-.78-3.51-1.22l-.7-.27c-1.12-.43-2.22-.89-3.29-1.39l-.71-.32c-1.12-.52-2.22-1.07-3.29-1.65-.39-.2-.77-.42-1.15-.63A68.85,68.85,0,0,1,49.6,313.66l-.41-.41c-.67-.73-1.33-1.46-2-2.22l-.71-.84c-.75-.93-1.48-1.87-2.18-2.83L44,307a61.18,61.18,0,0,1-7.1-12.84c0-.14-.11-.27-.16-.41q-.84-2.18-1.53-4.41c-.19-.62-.37-1.26-.53-1.88-.06-.19-.11-.38-.16-.56C32.25,277.7,32,268.19,32,258.74v-3.3c.07-15.29.3-30.83,2.56-45.91a1.65,1.65,0,0,1,0-.31,142.73,142.73,0,0,1,3.09-15.07h43V172.46h8.58V155h18.44v17.42Z" style="fill:#73bf44;opacity:0.100000001490116;isolation:isolate"/><path id="Path_125" data-name="Path 125" d="M456.91,310.18c-11.17,23.06-33.88,38.48-57.4,48.65a218.15,218.15,0,0,1-100.95,16.83q-9-.59-18-1.92a227.26,227.26,0,0,1-60.28-17.57Q212,352.42,204,348a207.48,207.48,0,0,1-25.44-16.64q-3-2.33-6-4.76c-1.37-1.13-2.73-2.28-4.1-3.4a51.27,51.27,0,0,0-9.23-6.28,31.37,31.37,0,0,0-3.08-1.37V250.29H234.2v14.53h34.27V158.54h40.34V201h20V175.88h16.48V149h7.58V133.34l2,.74V149h7.38v26.89h16.48v25.16H403v95.87h38.61V227.2H454C465.29,253.57,469.36,284.49,456.91,310.18Z" style="fill:#73bf44;opacity:0.100000001490116;isolation:isolate"/><rect id="Rectangle_45" data-name="Rectangle 45" x="288.07" y="184.13" width="18.03" height="18.03" style="fill:#73bf44;opacity:0.100000001490116;isolation:isolate"/><rect id="Rectangle_46" data-name="Rectangle 46" x="288.07" y="219.93" width="18.03" height="18.03" style="fill:#73bf44;opacity:0.100000001490116;isolation:isolate"/><rect id="Rectangle_47" data-name="Rectangle 47" x="288.07" y="255.72" width="18.03" height="18.03" style="fill:#73bf44;opacity:0.100000001490116;isolation:isolate"/><rect id="Rectangle_48" data-name="Rectangle 48" x="288.07" y="291.52" width="18.03" height="18.03" style="fill:#73bf44;opacity:0.100000001490116;isolation:isolate"/><rect id="Rectangle_49" data-name="Rectangle 49" x="288.07" y="327.32" width="18.03" height="18.03" style="fill:#73bf44;opacity:0.100000001490116;isolation:isolate"/><path id="Path_126" data-name="Path 126" d="M306.1,361.41v14.24q-9-.6-18-1.92V361.41Z" style="fill:#73bf44;opacity:0.100000001490116;isolation:isolate"/><rect id="Rectangle_50" data-name="Rectangle 50" x="173.83" y="279.25" width="63.11" height="8.17" style="fill:#73bf44;opacity:0.100000001490116;isolation:isolate"/><rect id="Rectangle_51" data-name="Rectangle 51" x="173.83" y="303.04" width="63.11" height="8.17" style="fill:#73bf44;opacity:0.100000001490116;isolation:isolate"/><path id="Path_127" data-name="Path 127" d="M236.76,326.83V335H190.12q-3-2.33-6-4.76c-1.36-1.13-2.72-2.28-4.09-3.4Z" style="fill:#73bf44;opacity:0.100000001490116;isolation:isolate"/><path id="Path_128" data-name="Path 128" d="M235.84,350.64v8.16h-4.93q-8.28-3.76-16.28-8.16Z" style="fill:#73bf44;opacity:0.100000001490116;isolation:isolate"/><rect id="Rectangle_52" data-name="Rectangle 52" x="334.4" y="231.01" width="11.74" height="11.74" style="fill:#73bf44;opacity:0.100000001490116;isolation:isolate"/><rect id="Rectangle_53" data-name="Rectangle 53" x="93.18" y="178.58" width="11.74" height="11.74" style="fill:#73bf44;opacity:0.100000001490116;isolation:isolate"/><rect id="Rectangle_54" data-name="Rectangle 54" x="93.18" y="204.71" width="11.74" height="11.74" style="fill:#73bf44;opacity:0.100000001490116;isolation:isolate"/><rect id="Rectangle_55" data-name="Rectangle 55" x="93.18" y="230.85" width="11.74" height="11.74" style="fill:#73bf44;opacity:0.100000001490116;isolation:isolate"/><rect id="Rectangle_56" data-name="Rectangle 56" x="93.18" y="256.99" width="11.74" height="11.74" style="fill:#73bf44;opacity:0.100000001490116;isolation:isolate"/><rect id="Rectangle_57" data-name="Rectangle 57" x="93.18" y="283.12" width="11.74" height="11.74" style="fill:#73bf44;opacity:0.100000001490116;isolation:isolate"/><rect id="Rectangle_58" data-name="Rectangle 58" x="93.18" y="309.26" width="11.74" height="11.74" style="fill:#73bf44;opacity:0.100000001490116;isolation:isolate"/><rect id="Rectangle_59" data-name="Rectangle 59" x="377.37" y="231.01" width="11.74" height="11.74" style="fill:#73bf44;opacity:0.100000001490116;isolation:isolate"/><rect id="Rectangle_60" data-name="Rectangle 60" x="334.4" y="258.76" width="11.74" height="11.74" style="fill:#73bf44;opacity:0.100000001490116;isolation:isolate"/><rect id="Rectangle_61" data-name="Rectangle 61" x="377.37" y="258.76" width="11.74" height="11.74" style="fill:#73bf44;opacity:0.100000001490116;isolation:isolate"/><rect id="Rectangle_62" data-name="Rectangle 62" x="334.4" y="286.51" width="11.74" height="11.74" style="fill:#73bf44;opacity:0.100000001490116;isolation:isolate"/><rect id="Rectangle_63" data-name="Rectangle 63" x="377.37" y="286.51" width="11.74" height="11.74" style="fill:#73bf44;opacity:0.100000001490116;isolation:isolate"/><rect id="Rectangle_64" data-name="Rectangle 64" x="334.4" y="314.27" width="11.74" height="11.74" style="fill:#73bf44;opacity:0.100000001490116;isolation:isolate"/><rect id="Rectangle_65" data-name="Rectangle 65" x="377.37" y="314.27" width="11.74" height="11.74" style="fill:#73bf44;opacity:0.100000001490116;isolation:isolate"/><rect id="Rectangle_66" data-name="Rectangle 66" x="334.4" y="342.02" width="11.74" height="11.74" style="fill:#73bf44;opacity:0.100000001490116;isolation:isolate"/><rect id="Rectangle_67" data-name="Rectangle 67" x="377.37" y="342.02" width="11.74" height="11.74" style="fill:#73bf44;opacity:0.100000001490116;isolation:isolate"/><path id="Path_129" data-name="Path 129" d="M334.4,375.68v-7.57h11.73v6.49Z" style="fill:#73bf44;opacity:0.100000001490116;isolation:isolate"/><path id="Path_130" data-name="Path 130" d="M34.55,210v6.74H79.43V210Zm4,6.32h-3.3v-5.89h3.3Zm4,0H39.25v-5.89h3.29Zm4,0H43.25v-5.89h3.29Zm4,0h-3.3v-5.89h3.3Zm4,0h-3.3v-5.89h3.3Zm4,0H55.24v-5.89h3.29Zm4,0H59.24v-5.89h3.29Zm4,0h-3.3v-5.89h3.3Zm4,0h-3.3v-5.89h3.3Zm4,0h-3.3v-5.89h3.3Zm4.21,0h-3.5v-5.89h3.5Z" style="fill:#73bf44;opacity:0.100000001490116;isolation:isolate"/><path id="Path_131" data-name="Path 131" d="M34.55,228.77v6.71H79.43v-6.71Zm4,6.29h-3.3v-5.87h3.3Zm4,0H39.25v-5.87h3.29Zm4,0H43.25v-5.87h3.29Zm4,0h-3.3v-5.87h3.3Zm4,0h-3.3v-5.87h3.3Zm4,0H55.24v-5.87h3.29Zm4,0H59.24v-5.87h3.29Zm4,0h-3.3v-5.87h3.3Zm4,0h-3.3v-5.87h3.3Zm4,0h-3.3v-5.87h3.3Zm4.21,0h-3.5v-5.87h3.5Z" style="fill:#73bf44;opacity:0.100000001490116;isolation:isolate"/><path id="Path_132" data-name="Path 132" d="M34.55,247.52v6.71H79.43v-6.71Zm4,6.29h-3.3v-5.87h3.3Zm4,0H39.25v-5.87h3.29Zm4,0H43.25v-5.87h3.29Zm4,0h-3.3v-5.87h3.3Zm4,0h-3.3v-5.87h3.3Zm4,0H55.24v-5.87h3.29Zm4,0H59.24v-5.87h3.29Zm4,0h-3.3v-5.87h3.3Zm4,0h-3.3v-5.87h3.3Zm4,0h-3.3v-5.87h3.3Zm4.21,0h-3.5v-5.87h3.5Z" style="fill:#73bf44;opacity:0.100000001490116;isolation:isolate"/><path id="Path_133" data-name="Path 133" d="M34.55,266.26V273H79.43v-6.74Zm4,6.31h-3.3v-5.89h3.3Zm4,0H39.25v-5.89h3.29Zm4,0H43.25v-5.89h3.29Zm4,0h-3.3v-5.89h3.3Zm4,0h-3.3v-5.89h3.3Zm4,0H55.24v-5.89h3.29Zm4,0H59.24v-5.89h3.29Zm4,0h-3.3v-5.89h3.3Zm4,0h-3.3v-5.89h3.3Zm4,0h-3.3v-5.89h3.3Zm4.21,0h-3.5v-5.89h3.5Z" style="fill:#73bf44;opacity:0.100000001490116;isolation:isolate"/><path id="Path_134" data-name="Path 134" d="M34.72,285c.16.63.34,1.26.53,1.89v-1.47h3.3v5.89H36.79c.05.14.1.28.16.42h42.5V285Zm7.83,6.31h-3.3v-5.89h3.3Zm4,0H43.25v-5.89h3.29Zm4,0H47.25v-5.89h3.29Zm4,0h-3.3v-5.89h3.3Zm4,0H55.24v-5.89h3.29Zm4,0H59.24v-5.89h3.29Zm4,0h-3.3v-5.89h3.3Zm4,0h-3.3v-5.89h3.3Zm4,0H71.23v-5.89h3.29Zm4.21,0h-3.5v-5.89h3.5Z" style="fill:#73bf44;opacity:0.100000001490116;isolation:isolate"/><path id="Path_135" data-name="Path 135" d="M44.05,303.76l.31.42h2.18V307c.23.28.47.55.7.84v-3.66h3.3v5.89H49.2a4.16,4.16,0,0,0,.42.42H79.45v-6.73Zm10.49,6.31h-3.3v-5.89h3.3Zm4,0H55.24v-5.89h3.29Zm4,0H59.24v-5.89h3.29Zm4,0h-3.3v-5.89h3.3Zm4,0h-3.3v-5.89h3.3Zm4,0H71.23v-5.89h3.29Zm4.21,0h-3.5v-5.89h3.5Z" style="fill:#73bf44;opacity:0.100000001490116;isolation:isolate"/><path id="Path_136" data-name="Path 136" d="M66.08,322.54l1.15.62V323h3.29v1.86l.7.32V323h3.3v3.57l.7.27V323h3.51V328l.7.22v-5.69Z" style="fill:#73bf44;opacity:0.100000001490116;isolation:isolate"/><path id="Path_137" data-name="Path 137" d="M197.82,154.11s-10-.6-8.84,6.42a1.73,1.73,0,0,0,.89,1.81s0-.52,1-.35a5,5,0,0,0,1.09.06,2.27,2.27,0,0,0,1.33-.56h0s2.82-1.16,3.92-5.77c0,0,.81-1,.78-1.26l-1.69.72a3,3,0,0,1,.12,2.23s0-2.19-.38-2.13c-.06,0-.87.41-.87.41a5,5,0,0,1,.24,3.68s.29-2.63-.56-3.52l-1.19.69a5.27,5.27,0,0,1,.38,4s.2-2.75-.63-3.82l-1.08.84a5.09,5.09,0,0,1,.42,3.65s-.09-3.19-.66-3.44a6.7,6.7,0,0,0-1.09,1.17s.75,1.58.28,2.41c0,0-.28-2.14-.51-2.14a6.94,6.94,0,0,0-1,2.38,5.08,5.08,0,0,1,.81-2.53,2.79,2.79,0,0,0-1.44.75s.14-1,1.68-1.09a6.27,6.27,0,0,1,1-1.13,6.15,6.15,0,0,0-2.45.27,2.75,2.75,0,0,1,2.72-.51l1.07-.87a8.92,8.92,0,0,0-2.87,0,3.45,3.45,0,0,1,3.14-.23l1.16-.69a10.4,10.4,0,0,0-2.72-.24,4.17,4.17,0,0,1,3.05,0l.85-.37s-1.27-.25-1.62-.28-.39-.14-.39-.14a4.37,4.37,0,0,1,2.35.26A12,12,0,0,0,197.82,154.11Z" style="fill:#73bf44;opacity:0.100000001490116;isolation:isolate"/><path id="Path_138" data-name="Path 138" d="M172.26,186.87s-3.43,9.44,3.65,10.3a1.71,1.71,0,0,0,2-.34s-.5-.16,0-1.08a4.85,4.85,0,0,0,.36-1,2.2,2.2,0,0,0-.15-1.43h0s-.31-3-4.42-5.4c0,0-.73-1.06-1-1.11l.21,1.83a3,3,0,0,1,2.18.52s-2.1-.57-2.16-.25c0,.07.16,1,.16,1a5,5,0,0,1,3.59.81s-2.43-1-3.53-.47l.33,1.34a5.29,5.29,0,0,1,3.93.77s-2.58-1-3.84-.48l.5,1.26a5.21,5.21,0,0,1,3.62.63s-3.09-.84-3.49-.34a6.54,6.54,0,0,0,.82,1.37s1.72-.27,2.39.42c0,0-2.13-.33-2.21-.11a7.12,7.12,0,0,0,2,1.68,5.13,5.13,0,0,1-2.18-1.49,2.82,2.82,0,0,0,.3,1.59s-.91-.41-.56-1.91a6.44,6.44,0,0,1-.81-1.26,6.24,6.24,0,0,0-.42,2.42,2.74,2.74,0,0,1,.28-2.76l-.54-1.26a8.43,8.43,0,0,0-.77,2.74,3.47,3.47,0,0,1,.67-3.07l-.34-1.31a10.84,10.84,0,0,0-1,2.53,4.21,4.21,0,0,1,.92-2.92l-.12-.91s-.59,1.13-.73,1.47-.25.33-.25.33a4.34,4.34,0,0,1,.92-2.17A10.63,10.63,0,0,0,172.26,186.87Z" style="fill:#73bf44;opacity:0.100000001490116;isolation:isolate"/><path id="Path_139" data-name="Path 139" d="M236.05,179.23s-3.43,9.45,3.65,10.31a1.7,1.7,0,0,0,2-.34s-.49-.17,0-1.09a4.77,4.77,0,0,0,.36-1,2.37,2.37,0,0,0-.15-1.44h0s-.32-3-4.42-5.39c0,0-.74-1.06-1-1.11l.21,1.83a3.08,3.08,0,0,1,2.18.52s-2.1-.58-2.16-.25c0,.07.16,1,.16,1a5,5,0,0,1,3.59.8s-2.43-1-3.53-.46l.33,1.33a5.25,5.25,0,0,1,3.93.78s-2.58-1-3.84-.49l.5,1.27a5.2,5.2,0,0,1,3.62.62s-3.1-.84-3.49-.34a6.62,6.62,0,0,0,.82,1.38s1.72-.27,2.38.42c0,0-2.12-.33-2.2-.11a7.48,7.48,0,0,0,2,1.68,5.16,5.16,0,0,1-2.18-1.49,2.82,2.82,0,0,0,.3,1.59s-.91-.42-.57-1.91a7,7,0,0,1-.8-1.27,6.09,6.09,0,0,0-.42,2.42,2.75,2.75,0,0,1,.28-2.75l-.53-1.26a8.44,8.44,0,0,0-.78,2.74,3.47,3.47,0,0,1,.67-3.07l-.33-1.31a10.35,10.35,0,0,0-1,2.52,4.18,4.18,0,0,1,.91-2.92l-.12-.9s-.59,1.13-.73,1.47-.24.33-.24.33a4.21,4.21,0,0,1,.91-2.17A10.88,10.88,0,0,0,236.05,179.23Z" style="fill:#73bf44;opacity:0.100000001490116;isolation:isolate"/><path id="Path_140" data-name="Path 140" d="M144.86,253.25s-3.42,9.45,3.65,10.31a1.72,1.72,0,0,0,2-.34s-.5-.16,0-1.08a4.85,4.85,0,0,0,.36-1,2.3,2.3,0,0,0-.15-1.44h0s-.32-3-4.42-5.39c0,0-.74-1.06-1-1.11l.21,1.83a3,3,0,0,1,2.18.52s-2.1-.58-2.16-.25c0,.07.15,1,.15,1a5,5,0,0,1,3.6.8s-2.44-1-3.54-.46l.33,1.33a5.28,5.28,0,0,1,3.93.78,7.52,7.52,0,0,0-3.84-.49l.5,1.27a5.23,5.23,0,0,1,3.63.62s-3.1-.84-3.49-.34a6.51,6.51,0,0,0,.82,1.39s1.72-.28,2.38.41c0,0-2.12-.33-2.2-.11a7.32,7.32,0,0,0,2,1.68,5.07,5.07,0,0,1-2.18-1.49,2.82,2.82,0,0,0,.3,1.59s-.91-.41-.56-1.91a7,7,0,0,1-.82-1.26,6.21,6.21,0,0,0-.41,2.41,2.72,2.72,0,0,1,.28-2.75l-.53-1.26a8.46,8.46,0,0,0-.79,2.74,3.45,3.45,0,0,1,.68-3.07l-.34-1.31a10.35,10.35,0,0,0-1,2.52,4.19,4.19,0,0,1,.92-2.92l-.12-.9s-.6,1.13-.74,1.47-.24.33-.24.33a4.3,4.3,0,0,1,.92-2.17A10,10,0,0,0,144.86,253.25Z" style="fill:#73bf44;opacity:0.100000001490116;isolation:isolate"/><path id="Path_141" data-name="Path 141" d="M131.81,167.89s-3.43,9.45,3.64,10.31a1.74,1.74,0,0,0,2-.34s-.49-.17,0-1.09a4.66,4.66,0,0,0,.36-1,2.2,2.2,0,0,0-.15-1.43h0s-.31-3-4.42-5.39c0,0-.73-1.07-1-1.11l.21,1.82a3.06,3.06,0,0,1,2.18.52s-2.1-.57-2.15-.24c0,.07.15,1,.15,1a5,5,0,0,1,3.59.81s-2.43-1-3.53-.47l.33,1.34a5.25,5.25,0,0,1,3.93.78s-2.58-1-3.84-.49l.5,1.26a5.21,5.21,0,0,1,3.62.63s-3.09-.84-3.49-.34a6.54,6.54,0,0,0,.82,1.37s1.72-.27,2.38.42c0,0-2.12-.33-2.2-.11a7.12,7.12,0,0,0,2,1.68,5.13,5.13,0,0,1-2.18-1.49,2.75,2.75,0,0,0,.31,1.59s-.92-.41-.57-1.91a6.44,6.44,0,0,1-.81-1.26,6.24,6.24,0,0,0-.42,2.42,2.75,2.75,0,0,1,.28-2.75l-.53-1.26a8.38,8.38,0,0,0-.78,2.73,3.47,3.47,0,0,1,.67-3.07l-.34-1.3a10.77,10.77,0,0,0-1,2.52,4.23,4.23,0,0,1,.92-2.92l-.12-.9s-.59,1.12-.73,1.46-.25.33-.25.33a4.38,4.38,0,0,1,.92-2.17A10.88,10.88,0,0,0,131.81,167.89Z" style="fill:#73bf44;opacity:0.100000001490116;isolation:isolate"/><path id="Path_142" data-name="Path 142" d="M156.13,217.26s2.65,9.67,8.92,6.31a1.72,1.72,0,0,0,1.43-1.42s-.5.15-.66-.87a4.84,4.84,0,0,0-.3-1.05,2.27,2.27,0,0,0-1-1.08h0s-2-2.3-6.73-1.86c0,0-1.21-.45-1.44-.33l1.22,1.37a3.1,3.1,0,0,1,2.08-.84s-2.06.75-1.9,1c0,.06.68.69.68.69a5,5,0,0,1,3.4-1.41s-2.57.58-3.15,1.66l1,.91a5.23,5.23,0,0,1,3.65-1.64s-2.66.69-3.41,1.82l1.14.75a5.16,5.16,0,0,1,3.32-1.58s-3,1.11-3.05,1.73a6.61,6.61,0,0,0,1.46.66s1.26-1.21,2.19-1c0,0-1.93.95-1.87,1.18a7.8,7.8,0,0,0,2.59.22,5.14,5.14,0,0,1-2.64,0,2.83,2.83,0,0,0,1.17,1.13s-1,.18-1.57-1.24a6.42,6.42,0,0,1-1.39-.56,6.26,6.26,0,0,0,1,2.21,2.74,2.74,0,0,1-1.36-2.4l-1.16-.73a8.48,8.48,0,0,0,.94,2.68,3.44,3.44,0,0,1-1.22-2.89l-1-.88a10.67,10.67,0,0,0,.65,2.66,4.23,4.23,0,0,1-.94-2.92l-.62-.66s.17,1.26.25,1.62,0,.41,0,.41a4.27,4.27,0,0,1-.5-2.3A10.54,10.54,0,0,0,156.13,217.26Z" style="fill:#73bf44;opacity:0.100000001490116;isolation:isolate"/><path id="Path_143" data-name="Path 143" d="M225,225.56s2.64,9.68,8.92,6.32a1.71,1.71,0,0,0,1.42-1.43s-.49.15-.65-.86a4.84,4.84,0,0,0-.3-1.05,2.29,2.29,0,0,0-.95-1.09h0s-2-2.29-6.73-1.85c0,0-1.21-.45-1.45-.33l1.23,1.37a3.06,3.06,0,0,1,2.08-.85s-2.06.76-1.91,1.05c0,.06.69.7.69.7a4.91,4.91,0,0,1,3.4-1.41s-2.58.57-3.16,1.65l1,.91a5.25,5.25,0,0,1,3.66-1.64s-2.67.7-3.42,1.82l1.15.75a5.13,5.13,0,0,1,3.33-1.58s-3,1.11-3.06,1.74a7.15,7.15,0,0,0,1.47.65s1.26-1.21,2.18-1c0,0-1.93,1-1.86,1.18a7.53,7.53,0,0,0,2.59.22,5.14,5.14,0,0,1-2.64,0A2.75,2.75,0,0,0,233.2,232s-1,.18-1.58-1.23a6.92,6.92,0,0,1-1.38-.57,6.39,6.39,0,0,0,1,2.22,2.74,2.74,0,0,1-1.36-2.41l-1.17-.74a9.06,9.06,0,0,0,.94,2.69,3.47,3.47,0,0,1-1.22-2.89l-1-.88a10.47,10.47,0,0,0,.64,2.65,4.21,4.21,0,0,1-.93-2.91l-.62-.66s.17,1.26.25,1.62,0,.41,0,.41a4.37,4.37,0,0,1-.51-2.3S225.09,225.48,225,225.56Z" style="fill:#73bf44;opacity:0.100000001490116;isolation:isolate"/><path id="Path_144" data-name="Path 144" d="M391.19,361l4.24,4.48,6.72-11.84-.61-1.33Z" style="fill:#73bf44"/><path id="Path_145" data-name="Path 145" d="M391.19,361l4.24,4.48,6.72-11.84-.61-1.33Z" style="opacity:0.200000002980232;isolation:isolate"/><path id="Path_146" data-name="Path 146" d="M112,350.88c0,22.47-15.39,27.23-30.81,27.23s-24.1-18.93-24.1-41.41S69.56,296,85,296,112,328.41,112,350.88Z" style="fill:#646780"/><path id="Path_147" data-name="Path 147" d="M112,350.88c0,22.47-15.39,27.23-30.81,27.23s-24.1-18.93-24.1-41.41S69.56,296,85,296,112,328.41,112,350.88Z" style="opacity:0.200000002980232;isolation:isolate"/><path id="Path_148" data-name="Path 148" d="M101.31,337.42c0,22.47-9.91,40.69-22.13,40.69s-22.61-18.22-22.61-40.69a77.57,77.57,0,0,1-.12-9c2.24-18.13,12.21-31.66,22.72-31.66C91.4,296.74,101.31,315,101.31,337.42Z" style="fill:#646780"/><path id="Path_149" data-name="Path 149" d="M99.1,244.42s-19.39,21.75-25.55,39.87L241,302.78l89.71-18.49s-35.53-42.57-45.13-44.21S99.1,244.42,99.1,244.42Z" style="fill:#73bf44"/><path id="Path_150" data-name="Path 150" d="M99.1,244.42s-19.39,21.75-25.55,39.87L241,302.78l89.71-18.49s-35.53-42.57-45.13-44.21S99.1,244.42,99.1,244.42Z" style="opacity:0.400000005960465;isolation:isolate"/><path id="Path_151" data-name="Path 151" d="M212.54,293.7l26.88,75.41V350l7.48-21.36,20.73-9.18,26.28,11.93,9.4,2.94.82-17.4-31.25-15.4-14.54-7L225,291.67,215.86,290Z" style="fill:#73bf44"/><path id="Path_152" data-name="Path 152" d="M225.46,306.36l24.45,2.81c-1.11-9.76,6.14-9.76,6.14-9.76l-24.46-4.24H220.17" style="fill:#73bf44"/><path id="Path_153" data-name="Path 153" d="M238.2,380.71h17.33l50.2-1.68s1.09,9.57,14.31,7.32c0,0,7.28.47,8.06-3.49s-16.58-40.51-16.58-40.51l-23.66-17.66-21.47-5.22L251,324l-9.78,15.57L235,360.89Z" style="fill:#646780"/><path id="Path_154" data-name="Path 154" d="M238.2,380.71h17.33l50.2-1.68s1.09,9.57,14.31,7.32c0,0,7.28.47,8.06-3.49s-16.58-40.51-16.58-40.51l-23.66-17.66-21.47-5.22L251,324l-9.78,15.57L235,360.89Z" style="opacity:0.200000002980232;isolation:isolate"/><path id="Path_155" data-name="Path 155" d="M102.47,249.92c-2.48,2-10.32,9.3-16.86,24.69a3.73,3.73,0,0,0,2,4.88,3.47,3.47,0,0,0,1,.27l39.38,5.1a5.94,5.94,0,0,0,6.54-4.48l6.92-28.24a2.81,2.81,0,0,0-2.06-3.41,2.56,2.56,0,0,0-.73-.08l-34.41.64a2.8,2.8,0,0,0-1.73.63Z" style="fill:#73bf44"/><path id="Path_156" data-name="Path 156" d="M102.47,249.92c-2.48,2-10.32,9.3-16.86,24.69a3.73,3.73,0,0,0,2,4.88,3.47,3.47,0,0,0,1,.27l39.38,5.1a5.94,5.94,0,0,0,6.54-4.48l6.92-28.24a2.81,2.81,0,0,0-2.06-3.41,2.56,2.56,0,0,0-.73-.08l-34.41.64a2.8,2.8,0,0,0-1.73.63Z" style="fill:#fff;opacity:0.200000002980232;isolation:isolate"/><path id="Path_157" data-name="Path 157" d="M154.17,248.41l44.34-.42a7.55,7.55,0,0,1,7.14,5.36l13.82,31.4a5.38,5.38,0,0,1-3.13,6.95,5.44,5.44,0,0,1-1.92.35l-64.72-4.26c-5.37-.31-9.17-5.79-7.93-11.43L146.46,255A8.15,8.15,0,0,1,154.17,248.41Z" style="fill:#73bf44"/><path id="Path_158" data-name="Path 158" d="M154.17,248.41l44.34-.42a7.55,7.55,0,0,1,7.14,5.36l13.82,31.4a5.38,5.38,0,0,1-3.13,6.95,5.44,5.44,0,0,1-1.92.35l-64.72-4.26c-5.37-.31-9.17-5.79-7.93-11.43L146.46,255A8.15,8.15,0,0,1,154.17,248.41Z" style="fill:#fff;opacity:0.200000002980232;isolation:isolate"/><path id="Path_159" data-name="Path 159" d="M218.81,248c12.12-.22,44.24-1.14,60.23-4.82,0,0,27.42,20.66,35.64,36.24,0,0-42.75,10.41-72.27,11.82A11.18,11.18,0,0,1,231.82,285l-15.7-32.54a3,3,0,0,1,1.39-4.08,3,3,0,0,1,1.3-.31Z" style="fill:#73bf44"/><path id="Path_160" data-name="Path 160" d="M218.81,248c12.12-.22,44.24-1.14,60.23-4.82,0,0,27.42,20.66,35.64,36.24,0,0-42.75,10.41-72.27,11.82A11.18,11.18,0,0,1,231.82,285l-15.7-32.54a3,3,0,0,1,1.39-4.08,3,3,0,0,1,1.3-.31Z" style="fill:#fff;opacity:0.200000002980232;isolation:isolate"/><path id="Path_161" data-name="Path 161" d="M234.22,252.75c5.05-.09,14.9-.35,24.52-1.07a46.11,46.11,0,0,1,38,15.35l.31.36a6,6,0,0,1-.59,8.45,6.05,6.05,0,0,1-2.68,1.33c-10.61,2.28-28.69,5.76-42.64,6.43a8,8,0,0,1-7.6-4.51l-11.2-23.22a2.18,2.18,0,0,1,1-2.91,2.24,2.24,0,0,1,.91-.21Z" style="fill:#fff;opacity:0.100000001490116;isolation:isolate"/><path id="Path_162" data-name="Path 162" d="M248.86,369.11v11.6L120.67,361.14c-6.28-2.18-10-.84-10-.84-4.63-2.26-8-11.08-8.09-11.36h0l2.42-7L85.32,309.43l-26.14,1.09c4.11-32.87,15.95-34.44,15.95-34.44L228.7,290.34Z" style="fill:#73bf44"/><path id="Path_163" data-name="Path 163" d="M214,304.77c-1,1.1-2.85,2.11-6.24,2-5.2-.12-6.18-4.56-6.32-7.21a12.54,12.54,0,0,1,.06-1.94l6.81-2.08,1.38,1.3,4.13,3.84A2.92,2.92,0,0,1,214,304.77Z" style="opacity:0.100000001490116;isolation:isolate"/><path id="Path_164" data-name="Path 164" d="M214,304.43c-1,1.1-2.85,2.1-6.24,2-5.2-.13-6.18-4.57-6.32-7.22a12.62,12.62,0,0,1,.06-1.94l6.81-2.08,1.38,1.3,4.11,3.85A2.92,2.92,0,0,1,214,304.43Z" style="fill:#dce0ed"/><path id="Path_165" data-name="Path 165" d="M209.76,296.69a5.28,5.28,0,0,1-3.45,2.82l-4.81-.1a12.58,12.58,0,0,1,.06-1.94l6.81-2.08Z" style="opacity:0.100000001490116;isolation:isolate"/><path id="Path_166" data-name="Path 166" d="M192.86,280s-10.87,1.45-8,11.28c2.2,7.45,7.1,7.95,9.35,7.76a37,37,0,0,1,3.94-.14l8.59.17a4.67,4.67,0,0,0,3.63-5.53,3.92,3.92,0,0,0-.13-.49C208.9,288.13,202.65,279.17,192.86,280Z" style="fill:#f1f0f3"/><ellipse id="Ellipse_62" data-name="Ellipse 62" cx="136.49" cy="302.63" rx="5.02" ry="6.53" style="opacity:0.200000002980232;isolation:isolate"/><path id="Rectangle_68" data-name="Rectangle 68" d="M130.9,300l14.27,1.52a2.22,2.22,0,0,1,2,2.43h0a2.21,2.21,0,0,1-2.44,2l-14.27-1.53a2.2,2.2,0,0,1-2-2.43h0A2.21,2.21,0,0,1,130.9,300Z" style="opacity:0.100000001490116;isolation:isolate"/><path id="Rectangle_69" data-name="Rectangle 69" d="M130.9,299.61l14.27,1.52a2.22,2.22,0,0,1,2,2.43h0a2.21,2.21,0,0,1-2.44,2L130.43,304a2.21,2.21,0,0,1-2-2.44h0A2.21,2.21,0,0,1,130.9,299.61Z" style="fill:#f1f0f3"/><path id="Path_167" data-name="Path 167" d="M57.6,343.73s-9-8.88,1.93-30.26c0,0,14-21.21,35.77,2a77.15,77.15,0,0,1,16.12,36.25l-8.51.18s-8.16-39.51-32.08-37.52C70.83,314.37,53.43,317.45,57.6,343.73Z" style="opacity:0.100000001490116;isolation:isolate"/><path id="Path_168" data-name="Path 168" d="M57.25,344.76s-9-8.87,1.93-30.26c0,0,14-21.2,35.76,2a77.17,77.17,0,0,1,16.13,36.25l-8.52.18s-8.16-39.5-32.08-37.51C70.47,315.41,53.07,318.49,57.25,344.76Z" style="opacity:0.100000001490116;isolation:isolate"/><path id="Path_169" data-name="Path 169" d="M57.25,344.07s-9-8.88,1.93-30.27c0,0,14-21.2,35.76,2A77,77,0,0,1,111.07,352l-8.52.18s-8.16-39.5-32.08-37.51C70.47,314.71,53.07,317.8,57.25,344.07Z" style="fill:#73bf44"/><path id="Path_170" data-name="Path 170" d="M57.25,344.07s-9-8.88,1.93-30.27c0,0,14-21.2,35.76,2A77,77,0,0,1,111.07,352l-8.52.18s-8.16-39.5-32.08-37.51C70.47,314.71,53.07,317.8,57.25,344.07Z" style="opacity:0.200000002980232;isolation:isolate"/><path id="Path_171" data-name="Path 171" d="M244.76,369.11v11.6l-128.2-19.57c-6.28-2.18-10-.84-10-.84-4.63-2.26-8-11.08-8.09-11.36h0l8.52-.18,24.65,3.44,89.59,12.87s15.88,1.81,16.79,2.52S244.76,369.11,244.76,369.11Z" style="fill:none"/><path id="Path_172" data-name="Path 172" d="M244.76,368.75v11.6l-128.2-19.57c-6.28-2.17-10-.85-10-.85-4.63-2.26-8-11.07-8.09-11.36h0l8.52-.18,24.65,3.45L221.2,364.7s15.88,1.82,16.79,2.53S244.76,368.75,244.76,368.75Z" style="opacity:0.100000001490116;isolation:isolate"/><path id="Path_173" data-name="Path 173" d="M244.76,369.11v11.6l-128.2-19.57c-6.28-2.18-10-.84-10-.84-4.63-2.26-8-11.08-8.09-11.36h0l8.52-.18,24.65,3.44,89.59,12.87s15.88,1.81,16.79,2.52S244.76,369.11,244.76,369.11Z" style="fill:#73bf44"/><path id="Path_174" data-name="Path 174" d="M244.76,369.11v11.6l-128.2-19.57c-6.28-2.18-10-.84-10-.84-4.63-2.26-8-11.08-8.09-11.36h0l8.52-.18,24.65,3.44,89.59,12.87s15.88,1.81,16.79,2.52S244.76,369.11,244.76,369.11Z" style="opacity:0.200000002980232;isolation:isolate"/><path id="Path_175" data-name="Path 175" d="M407.18,329.46S364.41,351.21,311.67,349c0,0-11.86.58-12.68-.5s3.06,4.57,3.06,4.57a5,5,0,0,1,2.91-1.53c1.45,0,8.09.49,8.09.49s75.82-3.21,95.21-20.43Z" style="fill:none"/><path id="Path_176" data-name="Path 176" d="M131.61,355.65c-8-25.58-7.54-43.42-5.78-53.86,1.91-11.36,5.77-16.72,5.81-16.77l.29.21s-3.85,5.37-5.75,16.65c-1.75,10.42-2.17,28.17,5.78,53.68Z" style="opacity:0.200000002980232;isolation:isolate"/><path id="Path_177" data-name="Path 177" d="M409.35,341c.32,1.19,1.07,4.48-.11,5.37a4.43,4.43,0,0,0-1.15,2.15,33.88,33.88,0,0,0-1,5.1l-12.32,13.77-20.85,8.16L324.05,379,294,330.09l-67.59-39.76,18.45-1c18.46-1,70.86-12.62,70.86-12.62L375,289.78a39.72,39.72,0,0,1,23.77,15.66,81.24,81.24,0,0,1,10.52,21,8,8,0,0,1,1.29,4.74,37.63,37.63,0,0,1-1,8.39c-.15.63-.25,1-.25,1S409.28,340.76,409.35,341Z" style="fill:#73bf44"/><path id="Path_178" data-name="Path 178" d="M228.49,366.87s-3.62-38.76,23.57-49.28c0,0,38.23-16.14,60.71,27.72l11.41,25s3.26,6.16,12.15,6c0,0,41.86-1.26,63.95-15.4l6.89-8s-3.44,11.23-6.89,13.77c0,0-13.59,15.95-63.07,18.85,0,0-20.23,2.17-26.33-17,0,0-8.28-43.49-50.33-43.13,0,0-24.7.48-25.31,43Z" style="opacity:0.100000001490116;isolation:isolate"/><path id="Path_179" data-name="Path 179" d="M228.49,367.6s-3.62-38.76,23.56-49.29c0,0,38.24-16.13,60.72,27.72l11.41,25s3.26,6.16,12.15,6c0,0,41.86-1.26,63.95-15.4l6.91-8s-3.44,11.24-6.89,13.78c0,0-13.59,15.95-63.07,18.85,0,0-20.23,2.17-26.33-17,0,0-8.28-43.5-50.33-43.14,0,0-24.7.49-25.31,43Z" style="fill:#73bf44"/><path id="Path_180" data-name="Path 180" d="M228.49,367.6s-3.62-38.76,23.56-49.29c0,0,38.24-16.13,60.72,27.72l11.41,25s3.26,6.16,12.15,6c0,0,41.86-1.26,63.95-15.4l6.91-8s-3.44,11.24-6.89,13.78c0,0-13.59,15.95-63.07,18.85,0,0-20.23,2.17-26.33-17,0,0-8.28-43.5-50.33-43.14,0,0-24.7.49-25.31,43Z" style="opacity:0.200000002980232;isolation:isolate"/><path id="Path_181" data-name="Path 181" d="M227.85,369.19l-1.63-53.93a55.55,55.55,0,0,0-.42-10.94,43.47,43.47,0,0,0-3.09-8.95,6.32,6.32,0,0,0-2.1-2.14l-1-.26,1.08-.08c.75.14,1.45.92,2.1,2a21,21,0,0,1,3.32,9.37,54.38,54.38,0,0,1,.42,11l1.64,53.92Z" style="opacity:0.200000002980232;isolation:isolate"/><path id="Path_183" data-name="Path 183" d="M371.89,313.68c-23.09-13.78-72-26.6-72.47-26.72l.1-.36c.49.13,49.42,13,72.56,26.77Z" style="opacity:0.200000002980232;isolation:isolate"/><path id="Path_184" data-name="Path 184" d="M404,332.26c-8.72-15.34-32.2-28-50.35-35.89A326.48,326.48,0,0,0,316,282.74l.1-.35A326.53,326.53,0,0,1,353.82,296c18.21,7.93,41.76,20.61,50.53,36Z" style="opacity:0.200000002980232;isolation:isolate"/><ellipse id="Ellipse_63" data-name="Ellipse 63" cx="393.22" cy="313.58" rx="4.18" ry="17.74" transform="translate(-109.53 299.75) rotate(-37)" style="opacity:0.100000001490116;isolation:isolate"/><ellipse id="Ellipse_64" data-name="Ellipse 64" cx="393.22" cy="312.88" rx="4.18" ry="17.74" transform="translate(-109.11 299.61) rotate(-37)" style="fill:#dce0ed"/><ellipse id="Ellipse_65" data-name="Ellipse 65" cx="393.77" cy="312.97" rx="2.71" ry="14.65" transform="translate(-109.06 299.96) rotate(-37)" style="opacity:0.100000001490116;isolation:isolate"/><ellipse id="Ellipse_66" data-name="Ellipse 66" cx="393.77" cy="312.63" rx="2.71" ry="14.65" transform="translate(-108.85 299.89) rotate(-37)" style="fill:#f1f0f3"/><path id="Path_185" data-name="Path 185" d="M350.16,339.85s1.17-8.88,8.15-10.88c0,0,23.74-6.87,28.91-7,0,0,5.35-1.63,8.88,2.35l3.62,4.89s2.52,4-3.08,4.72c0,0-28.69,10.52-41.13,11.61a18.85,18.85,0,0,0-2.11.32C351.59,346.27,347.77,346.38,350.16,339.85Z" style="opacity:0.100000001490116;isolation:isolate"/><path id="Path_186" data-name="Path 186" d="M350.51,339.5s1.17-8.88,8.15-10.88c0,0,23.74-6.87,28.91-7,0,0,5.34-1.64,8.87,2.35l3.63,4.89s2.52,4-3.08,4.72c0,0-28.69,10.52-41.13,11.61a18.85,18.85,0,0,0-2.11.32C351.93,345.92,348.12,346,350.51,339.5Z" style="fill:#f1f0f3"/><path id="Path_187" data-name="Path 187" d="M353,338.78s1.1-7.6,7.57-9.3c0,0,22.08-5.89,26.88-6,0,0,5-1.4,8.25,2l3.37,4.18s2.36,3.41-2.87,4c0,0-26.67,9-38.24,9.94A18.12,18.12,0,0,0,356,344C354.35,344.24,350.8,344.36,353,338.78Z" style="opacity:0.100000001490116;isolation:isolate"/><path id="Path_188" data-name="Path 188" d="M353.37,338.42s1.09-7.57,7.57-9.29c0,0,22.08-5.89,26.88-6,0,0,5-1.4,8.25,2l3.37,4.21s2.36,3.41-2.87,4c0,0-26.67,9-38.24,9.93a17.94,17.94,0,0,0-1.93.28C354.69,343.92,351.15,344,353.37,338.42Z" style="fill:#646780"/><path id="Path_189" data-name="Path 189" d="M355.39,334l-.05-.36c.33,0,32.56-4,39.5-9.4l.23.28C388.05,330,356.72,333.87,355.39,334Z" style="fill:#f1f0f3"/><path id="Path_190" data-name="Path 190" d="M353.63,338.06l-.06-.35c.35-.07,35.82-6.64,43.47-11.36l.19.3C389.52,331.42,354,338,353.63,338.06Z" style="fill:#f1f0f3"/><path id="Path_191" data-name="Path 191" d="M352.73,341.37l-.07-.36c.42-.07,41.24-7.78,46.29-12.29l.24.26C394.08,333.57,354.41,341.05,352.73,341.37Z" style="fill:#f1f0f3"/><path id="Path_192" data-name="Path 192" d="M395.09,340.91a172.62,172.62,0,0,1-31.56,9.29c-1.43.26-2.85.58-4.25,1a12.76,12.76,0,0,1-5.24.62c-2.08-.55-3.23,2-1,4l.14.12a8,8,0,0,0,6,2l3.47-.29s28.1-6.16,35.93-11c0,0,3.57-2.45,3.85-5.21s.59-4.94-2.24-3.3S395.09,340.91,395.09,340.91Z" style="opacity:0.100000001490116;isolation:isolate"/><path id="Path_193" data-name="Path 193" d="M395.41,340.57a172.29,172.29,0,0,1-31.55,9.29c-1.43.26-2.85.58-4.25,1a12.76,12.76,0,0,1-5.24.62c-2.1-.54-3.23,2-1,4l.06.06a8.32,8.32,0,0,0,6.18,2l3.33-.27H363c1-.21,28.19-6.23,35.89-10.94h0c.24-.18,3.57-2.55,3.84-5.21s.6-4.93-2.24-3.3-4.88,2.69-5.09,2.8Z" style="fill:#f1f0f3"/><path id="Path_194" data-name="Path 194" d="M393.43,342.61a176.15,176.15,0,0,1-26.17,8.23c-1.35.3-2.68.64-4,1a13.41,13.41,0,0,1-4.27.7c-1.8-.24-2.66,1.56-.64,2.77l.07,0a7.81,7.81,0,0,0,5.09,1l3.12-.41s23.64-5.95,30.08-9.71c0,0,2.94-1.89,3-3.79s.26-3.37-2.08-2.1S393.43,342.61,393.43,342.61Z" style="opacity:0.100000001490116;isolation:isolate"/><path id="Path_195" data-name="Path 195" d="M393.78,342.26a176.56,176.56,0,0,1-26.17,8.24c-1.35.29-2.68.64-4,1a13.8,13.8,0,0,1-4.27.71c-1.8-.24-2.66,1.55-.64,2.76h0a8,8,0,0,0,5.22,1.06l3-.42h0c.49-.12,23.69-6,30.07-9.68h0c.1-.06,2.94-1.92,3-3.78s.26-3.39-2.08-2.11-4.11,2.17-4.21,2.22Z" style="fill:#646780"/><ellipse id="Ellipse_67" data-name="Ellipse 67" cx="340.84" cy="357.32" rx="4.76" ry="3.53" transform="translate(-33.06 679.9) rotate(-87.14)" style="opacity:0.100000001490116;isolation:isolate"/><ellipse id="Ellipse_68" data-name="Ellipse 68" cx="340.74" cy="357.3" rx="4.76" ry="3.52" transform="matrix(0.05, -1, 1, 0.05, -33.06, 679.86)" style="fill:#f1f0f3"/><path id="Path_196" data-name="Path 196" d="M361,358.45s-18.45,2.81-23.35,3.08-5.63,3-5.63,3-1.17,6.89,5.62,4.89l24.1-2.72s3.27.1,3.27-4.35v-1a9.35,9.35,0,0,1,.17-1.66C365.28,359,364.92,357.86,361,358.45Z" style="opacity:0.100000001490116;isolation:isolate"/><path id="Path_197" data-name="Path 197" d="M361.31,358.09s-18.44,2.81-23.34,3.08-5.62,3-5.62,3-1.18,6.89,5.62,4.89l24.1-2.72s3.27.1,3.27-4.35v-1a10.37,10.37,0,0,1,.16-1.66C365.64,358.63,365.26,357.5,361.31,358.09Z" style="fill:#f1f0f3"/><path id="Path_198" data-name="Path 198" d="M404.32,349.18a4.49,4.49,0,0,0-1.14,2.15h0l-6,4.23a.49.49,0,0,1-.68-.12.55.55,0,0,1-.09-.28v-4.44a3.7,3.7,0,0,1,1.79-3.16l6.22-3.74C404.76,345,405.52,348.28,404.32,349.18Z" style="fill:#f1f0f3"/><path id="Path_199" data-name="Path 199" d="M365.7,361l-.28,4.49a3,3,0,0,0,2.75,3.23,2.92,2.92,0,0,0,.66,0,82.64,82.64,0,0,0,28.84-10.36l.78-9.18a1.29,1.29,0,0,0-1.15-1.42,1.31,1.31,0,0,0-.65.1c-5,2.25-18.59,8-27.18,9.13A4.34,4.34,0,0,0,365.7,361Z" style="fill:#646780"/><path id="Path_200" data-name="Path 200" d="M368.53,358.72V366S391,360.72,396,357.14V350.2a112.87,112.87,0,0,1-27.46,8.52Z" style="fill:#73bf44"/><path id="Path_201" data-name="Path 201" d="M404.21,343.23c-1.14-.08-2.06-2-2.06-4.43s1-4.43,2.11-4.43a1.33,1.33,0,0,1,1,.47A36.4,36.4,0,0,1,404.21,343.23Z" style="fill:#73bf44"/><path id="Path_202" data-name="Path 202" d="M404.57,342.88c-1.14-.07-2.05-2-2.05-4.42s1-4.44,2.1-4.44a1.34,1.34,0,0,1,1,.48A36.4,36.4,0,0,1,404.57,342.88Z" style="fill:#f1f0f3"/><path id="Path_203" data-name="Path 203" d="M309.47,370.54c0,39.83-16.84,40.69-38.79,40.69C253.15,411.23,246,393,246,370.54s5.63-40.64,23.16-40.64S309.47,348.07,309.47,370.54Z" style="fill:#646780"/><path id="Path_204" data-name="Path 204" d="M309.47,370.54c0,39.83-16.84,40.69-38.79,40.69C253.15,411.23,246,393,246,370.54s5.63-40.64,23.16-40.64S309.47,348.07,309.47,370.54Z" style="opacity:0.200000002980232;isolation:isolate"/><ellipse id="Ellipse_69" data-name="Ellipse 69" cx="268.56" cy="370.54" rx="22.12" ry="40.69" style="fill:#646780"/><path id="Path_205" data-name="Path 205" d="M88.9,348.77c0,12.21-3.54,22-10.88,22S62,360.86,62,348.65s3-22.95,10.39-22.95S88.9,336.56,88.9,348.77Z" style="fill:#f1f0f3"/><path id="Path_206" data-name="Path 206" d="M88.89,348.43c0,.93,0,1.84-.08,2.73a34.6,34.6,0,0,1-1,6.95c-1.2,4.5-3.37,7.62-6.54,8.21a6.27,6.27,0,0,1-1.14.1,8.86,8.86,0,0,1-4.69-1.52,18.53,18.53,0,0,1-7.23-10,21.52,21.52,0,0,1-1-5.09c0-.47,0-.95,0-1.43a45.6,45.6,0,0,1,1-9.89,18.26,18.26,0,0,1,2.14-5.62,6.1,6.1,0,0,1,5.22-3.26,8.62,8.62,0,0,1,4.6,1.55,18.07,18.07,0,0,1,5,5.22,22.33,22.33,0,0,1,3.73,12.08Z" style="fill:#646780"/><path id="Path_207" data-name="Path 207" d="M88.8,351.16a34.59,34.59,0,0,1-1,6.94c-.15-.17-4.31-5-7.43-1.89-2.3,2.26-.37,7.4.89,10.09a6.18,6.18,0,0,1-1.13.11,9,9,0,0,1-4.7-1.53v-.35a8.57,8.57,0,0,0-3.08-9.3,7.53,7.53,0,0,0-4.17-.38,21,21,0,0,1-1-5.09,7.07,7.07,0,0,0,2.12-7.46,33.21,33.21,0,0,0-1.19-3.87,18.6,18.6,0,0,1,2.16-5.61s.95,5.13,4.57,5.45,5.21-7,5.25-7.16a17.94,17.94,0,0,1,5,5.22,7.36,7.36,0,0,0-4.1,8.82C82.3,349.68,86.49,350.87,88.8,351.16Z" style="fill:#f1f0f3"/><ellipse id="Ellipse_70" data-name="Ellipse 70" cx="76.51" cy="347.79" rx="2.72" ry="4.71" transform="translate(-47.94 14.14) rotate(-8.05)" style="fill:#646780"/><path id="Path_208" data-name="Path 208" d="M272.79,372.24c0,14.63-3.12,26.36-9.6,26.36S249,386.73,249,372.09s2.69-27.5,9.17-27.5S272.79,357.61,272.79,372.24Z" style="fill:#f1f0f3"/><path id="Path_209" data-name="Path 209" d="M272.7,371.69c0,1.12,0,2.21-.07,3.27a55.43,55.43,0,0,1-.91,8.32c-1.05,5.38-3,9.12-5.77,9.83a4.15,4.15,0,0,1-1,.12,6.52,6.52,0,0,1-4.14-1.82c-2.68-2.31-5.13-6.65-6.4-12a34.71,34.71,0,0,1-.84-6.1c0-.56,0-1.14,0-1.72a71.3,71.3,0,0,1,.87-11.85,26.71,26.71,0,0,1,1.92-6.73c1.14-2.44,2.66-3.9,4.61-3.9A6.34,6.34,0,0,1,265,351a20,20,0,0,1,4.47,6.26A33.88,33.88,0,0,1,272.7,371.69Z" style="fill:#646780"/><path id="Path_210" data-name="Path 210" d="M272.63,375a56.76,56.76,0,0,1-.91,8.32c-.13-.21-3.79-6-6.56-2.27-2,2.71-.32,8.87.79,12.11a4.79,4.79,0,0,1-1,.11,6.52,6.52,0,0,1-4.14-1.82V391s1.63-6.9-2.72-11.15a5,5,0,0,0-3.68-.45,34.84,34.84,0,0,1-.84-6.1c.37-.4,2.91-3.37,1.87-8.94-.39-2.1-.75-3.6-1-4.62a26.78,26.78,0,0,1,1.92-6.74s.84,6.16,4,6.52,4.59-8.32,4.63-8.56a19.94,19.94,0,0,1,4.47,6.25s-5.11,2.89-3.62,10.56C266.88,373.21,270.58,374.6,272.63,375Z" style="fill:#f1f0f3"/><ellipse id="Ellipse_71" data-name="Ellipse 71" cx="260.8" cy="371.09" rx="2.41" ry="5.63" transform="translate(-29.41 22.52) rotate(-4.68)" style="fill:#646780"/><path id="Path_212" data-name="Path 212" d="M321.1,313.23l-.15.34c-.14-.07-12.67-5.47-59.14-13.36l-6.73-1.12-.65-.1c-7.43-1.22-15.64-2.47-24.7-3.79l.05-.36c12.27,1.76,23,3.45,32.32,5.05C308.45,307.76,321,313.17,321.1,313.23Z" style="opacity:0.200000002980232;isolation:isolate"/><path id="Path_213" data-name="Path 213" d="M95.9,247.17s4.21-7.16,18.6-7.79c0,0,105.24-13.75,171.68.54,0,0,5.67,2.52-.49,4S138.06,250.52,95.9,247.17Z" style="opacity:0.100000001490116;isolation:isolate"/><path id="Path_214" data-name="Path 214" d="M95.9,246.47s4.21-7.15,18.6-7.79c0,0,105.24-13.74,171.68.54,0,0,5.67,2.53-.49,4S138.06,249.83,95.9,246.47Z" style="fill:#fff"/><path id="Path_215" data-name="Path 215" d="M86.05,275.49c6.53-15.39,14.38-22.66,16.86-24.69a2.78,2.78,0,0,1,1.72-.63l34.43-.64a2.77,2.77,0,0,1,2.37,1.22,2.8,2.8,0,0,0-2.73-1.94l-34.43.63a2.77,2.77,0,0,0-1.72.64c-2.49,2-10.33,9.3-16.86,24.68a3.73,3.73,0,0,0,.29,3.49A3.71,3.71,0,0,1,86.05,275.49Z" style="opacity:0.100000001490116;isolation:isolate"/><path id="Path_216" data-name="Path 216" d="M142.71,277l4.7-21.32a8.12,8.12,0,0,1,7.71-6.62l44.34-.42a7.18,7.18,0,0,1,4.63,1.66,7.23,7.23,0,0,0-5.34-2.33l-44.34.41a8.16,8.16,0,0,0-7.71,6.64L142,276.36a9.68,9.68,0,0,0,3.13,9.51A9.75,9.75,0,0,1,142.71,277Z" style="opacity:0.100000001490116;isolation:isolate"/><path id="Path_217" data-name="Path 217" d="M234.91,286l-15.7-32.54a3,3,0,0,1,1.42-4.07,3,3,0,0,1,1.28-.31c12-.22,43.37-1.11,59.56-4.67l-1.6-1.23c-16,3.68-48.11,4.59-60.23,4.81a3.05,3.05,0,0,0-3,3.11,2.94,2.94,0,0,0,.31,1.27l15.7,32.52a11.19,11.19,0,0,0,6.42,5.73A11.18,11.18,0,0,1,234.91,286Z" style="opacity:0.100000001490116;isolation:isolate"/><rect id="Rectangle_70" data-name="Rectangle 70" x="233.58" y="367.6" width="6.77" height="2.08" style="fill:#73bf44"/><rect id="Rectangle_71" data-name="Rectangle 71" x="233.58" y="367.6" width="6.77" height="2.08" style="opacity:0.200000002980232;isolation:isolate"/><path id="Path_218" data-name="Path 218" d="M110.75,349.83l-8.32,1.43a4,4,0,0,0,.24.84c.16.42,9.26-.32,9.26-.32l-.88-.18Z" style="fill:#73bf44"/><path id="Path_219" data-name="Path 219" d="M110.75,349.83l-8.32,1.43a4,4,0,0,0,.24.84c.16.42,9.26-.32,9.26-.32l-.88-.18Z" style="opacity:0.200000002980232;isolation:isolate"/><path id="Path_220" data-name="Path 220" d="M79.37,369.73c-7.34,0-16.07-9.9-16.07-22.11,0-8.37,1.43-16.06,4.7-20.06-4.21,3.4-6,12-6,21.41,0,12.2,8.73,22.11,16.07,22.11A7.79,7.79,0,0,0,84.16,368,7.41,7.41,0,0,1,79.37,369.73Z" style="opacity:0.100000001490116;isolation:isolate"/><path id="Path_221" data-name="Path 221" d="M264.72,397c-6.58,0-14.39-11.89-14.39-26.55,0-10.05,1.26-19.28,4.2-24.08-3.78,4.07-5.41,14.36-5.41,25.7,0,14.66,7.82,26.55,14.39,26.55,2.22,0,4.06-1.34,5.51-3.68A5.74,5.74,0,0,1,264.72,397Z" style="opacity:0.100000001490116;isolation:isolate"/><ellipse id="Ellipse_72" data-name="Ellipse 72" cx="324.87" cy="328.39" rx="10.83" ry="21.14" transform="translate(-137.05 325.9) rotate(-45)" style="opacity:0.100000001490116;isolation:isolate"/><ellipse id="Ellipse_73" data-name="Ellipse 73" cx="325.21" cy="328.04" rx="10.83" ry="21.14" transform="translate(-136.71 326.04) rotate(-45)" style="fill:#dce0ed"/><ellipse id="Ellipse_74" data-name="Ellipse 74" cx="326.27" cy="327.84" rx="7.94" ry="17.94" transform="translate(-136.26 326.73) rotate(-45)" style="opacity:0.100000001490116;isolation:isolate"/><ellipse id="Ellipse_75" data-name="Ellipse 75" cx="326.27" cy="327.49" rx="7.94" ry="17.94" transform="translate(-136.01 326.63) rotate(-45)" style="fill:#f1f0f3"/><path id="Path_222" data-name="Path 222" d="M445.68,394.36s-17.79-1.07-15.69,11.4a3,3,0,0,0,1.58,3.2s0-.92,1.83-.61a7.79,7.79,0,0,0,1.93.09,4,4,0,0,0,2.36-1h0s5-2.06,6.94-10.24c0,0,1.44-1.78,1.39-2.24l-3,1.26a5.35,5.35,0,0,1,.22,4s-.1-3.88-.67-3.78c-.12,0-1.56.74-1.56.74s1.76,3.79.41,6.52c0,0,.51-4.62-1-6.24l-2.11,1.24s2.07,3.89.67,7.07c0,0,.36-4.88-1.11-6.78L436,400.48s1.94,3.85.75,6.48c0,0-.15-5.67-1.17-6.1a11.19,11.19,0,0,0-1.93,2.08s1.33,2.79.5,4.26c0,0-.5-3.79-.91-3.79a12.59,12.59,0,0,0-1.85,4.21,9.16,9.16,0,0,1,1.44-4.46,5,5,0,0,0-2.55,1.32s.25-1.77,2.94-1.92a11.65,11.65,0,0,1,1.75-2,11,11,0,0,0-4.33.5s1.44-1.69,4.83-.91l1.89-1.54a15.28,15.28,0,0,0-5,.05s1.73-1.49,5.55-.42L439.9,397a18.57,18.57,0,0,0-4.82-.42,7.38,7.38,0,0,1,5.43.09L442,396s-2.22-.42-2.86-.5-.69-.25-.69-.25a7.78,7.78,0,0,1,4.16.46A17.32,17.32,0,0,0,445.68,394.36Z" style="fill:#73bf44"/><ellipse id="Ellipse_76" data-name="Ellipse 76" cx="433.43" cy="410.04" rx="12.59" ry="2.13" style="fill:#73bf44;opacity:0.100000001490116;isolation:isolate"/><ellipse id="Ellipse_77" data-name="Ellipse 77" cx="472.9" cy="370.36" rx="7.1" ry="1.2" style="fill:#73bf44;opacity:0.100000001490116;isolation:isolate"/><path id="Path_223" data-name="Path 223" d="M420.61,367.62s-12.11-.73-10.68,7.75a2.1,2.1,0,0,0,1.08,2.18s0-.63,1.26-.41a5.84,5.84,0,0,0,1.32.06,2.81,2.81,0,0,0,1.61-.66h0s3.4-1.41,4.73-7c0,0,1-1.22.94-1.53l-2,.87a3.66,3.66,0,0,1,.14,2.7s-.06-2.64-.45-2.58c-.08,0-1.07.51-1.07.51a6,6,0,0,1,.3,4.44s.34-3.17-.67-4.25l-1.44.84a6.37,6.37,0,0,1,.45,4.82s.25-3.32-.75-4.63l-1.3,1s1.31,2.62.51,4.41c0,0-.11-3.87-.8-4.16a7.7,7.7,0,0,0-1.31,1.42s.9,1.9.34,2.9c0,0-.34-2.58-.63-2.59a8.58,8.58,0,0,0-1.26,2.87,6.32,6.32,0,0,1,1-3,3.45,3.45,0,0,0-1.74.91s.18-1.21,2-1.31a7.82,7.82,0,0,1,1.19-1.38,7.52,7.52,0,0,0-2.94.34,3.31,3.31,0,0,1,3.28-.62l1.29-1a10.73,10.73,0,0,0-3.44,0,4.14,4.14,0,0,1,3.78-.28l1.41-.84a12.56,12.56,0,0,0-3.29-.28,5,5,0,0,1,3.7.06l1-.45s-1.51-.3-1.94-.35-.47-.17-.47-.17a5.16,5.16,0,0,1,2.83.32A12.27,12.27,0,0,0,420.61,367.62Z" style="fill:#73bf44"/><ellipse id="Ellipse_78" data-name="Ellipse 78" cx="412.27" cy="378.29" rx="8.57" ry="1.45" style="fill:#73bf44;opacity:0.100000001490116;isolation:isolate"/><path id="Path_268" data-name="Path 268" d="M197.63,400.68l-.42-.1Z" style="opacity:0.100000001490116;isolation:isolate"/><path id="Path_270" data-name="Path 270" d="M197.89,400.73l-.23,0Z" style="opacity:0.100000001490116;isolation:isolate"/></g></svg>