<svg id="Layer_1" data-name="Layer 1" xmlns="http://www.w3.org/2000/svg" viewBox="0 0 512 512"><defs><style>.cls-1{fill:#010101;}</style></defs><title>08_confirmation_success</title><path id="confirmation_success" class="cls-1" d="M123,228H53a21,21,0,0,0-21,21V459a21,21,0,0,0,21,21h70a21,21,0,0,0,21-21V249A21,21,0,0,0,123,228ZM88,445a21,21,0,1,1,21-21A21,21,0,0,1,88,445ZM368,103.27c0,37.11-22.72,57.93-29.12,82.73h89c29.22,0,52,24.28,52.11,50.84.07,15.69-6.6,32.59-17,43l-.1.1c8.61,20.42,7.21,49-8.14,69.53,7.6,22.66-.06,50.5-14.33,65.42,3.76,15.4,2,28.5-5.38,39.05-17.86,25.66-62.13,26-99.56,26H333c-42.25,0-76.83-15.4-104.61-27.76-14-6.21-32.22-13.9-46.07-14.16A10.5,10.5,0,0,1,172,427.59v-187a10.5,10.5,0,0,1,3.11-7.46c34.67-34.25,49.57-70.51,78-99,13-13,17.67-32.58,22.22-51.54C279.2,66.38,287.34,32,305,32,326,32,368,39,368,103.27Z"/></svg>