<svg id="Layer_1" data-name="Layer 1" xmlns="http://www.w3.org/2000/svg" xmlns:xlink="http://www.w3.org/1999/xlink" viewBox="0 0 512 512"><defs><linearGradient id="linear-gradient" x1="2.68" y1="-293.37" x2="2.68" y2="-292.05" gradientTransform="matrix(104.38, 0, 0, -152.11, -36.9, -44264.8)" gradientUnits="userSpaceOnUse"><stop offset="0" stop-color="gray" stop-opacity="0.25"/><stop offset="0.54" stop-color="gray" stop-opacity="0.12"/><stop offset="1" stop-color="gray" stop-opacity="0.1"/></linearGradient><linearGradient id="linear-gradient-2" x1="268.8" y1="-14127.61" x2="268.8" y2="-14126.27" gradientTransform="matrix(0.33, 0, 0, -0.08, 11.8, -849.58)" xlink:href="#linear-gradient"/><linearGradient id="linear-gradient-3" x1="2.44" y1="-295.08" x2="2.44" y2="-293.77" gradientTransform="matrix(93.69, 0, 0, -122.71, -133.26, -35877.47)" xlink:href="#linear-gradient"/><linearGradient id="linear-gradient-4" x1="3.48" y1="-293.45" x2="3.48" y2="-292.13" gradientTransform="matrix(77.91, 0, 0, -149.56, 100.93, -43558.23)" xlink:href="#linear-gradient"/></defs><g id="onboarding_lessons"><path id="Path_505" data-name="Path 505" d="M63.39,173.63c9.45,21.35-2.61,45.94-16.8,64.45-4.74,6.21-10,12.71-10.65,20.5-.79,9.53,5.65,18.28,13.31,24A56,56,0,0,0,98.87,291c14.35-4.55,26.42-14.82,40.9-19,24.21-6.94,49.88,4.56,70.61,18.88,14.68,10.13,30.4,22.47,48.09,20.3,12.45-1.53,23-10.27,30.19-20.56,3.46-5,6.47-10.54,11.51-13.89a28.82,28.82,0,0,1,10-3.8c32.15-6.88,66.27,9.89,98,1.27,21.43-5.81,38.51-22.76,49.13-42.26s15.59-41.51,19.72-63.33c2.93-15.5,5.37-32.24-1.38-46.49-7.14-15.09-23.66-24.23-40.26-25.95s-33.26,3-48.56,9.69c-19.11,8.36-37.84,20.06-58.71,20.1-14.2,0-27.75-5.43-41.33-9.59-22.71-7-46.33-10.4-69.86-13.58-22.54-3-45.29-5.89-68-4.09-16,1.27-30.2,7.4-45.76,10.24-10.15,1.85-20.34.49-30.3,3.59-12.25,3.83-24.87,12.72-25.54,26.71C46.75,152.59,58.38,162.31,63.39,173.63Z" style="fill:#73bf44;opacity:0.100000001490116;isolation:isolate"/><path id="Path_506" data-name="Path 506" d="M311.54,192.65c-2.07-5.39-7.4-18.06-10.91-15.55-4.44,3.18,4.43,17.21,4.43,17.21.26,2.58-4.73,7.94-7.4,10.61v-.33a1.48,1.48,0,0,1-.12.29l-.22-.12a1.4,1.4,0,0,1-.32.57,5.43,5.43,0,0,0,0-.57c-.51,2.17-9.47,4.93-9.47,4.93h-.66c-2.49,0-9-.57-12-5.37a26.42,26.42,0,0,0-5.88-6.85,5,5,0,0,0-2.78-1.06,35.81,35.81,0,0,1-16.35-5.62l-.25-.17-.05.15c-.32-.45-.62-.93-.91-1.42h0l-.14-.26a12.16,12.16,0,0,0,6.7-10.83V178a8.28,8.28,0,0,0,1.12-4.15v-1.45l1.89-1.68a7.86,7.86,0,0,0,2.21-2.65,3.29,3.29,0,0,0,.23-1.35,2.36,2.36,0,0,0-.89-2.1c-1.45-1-3.88,0-4.93-1.4-.48-.63-.39-1.49-.63-2.23a4,4,0,0,0-3.84-2.34,16.51,16.51,0,0,0-4.71,1,27.35,27.35,0,0,1-10,.94,6.54,6.54,0,0,0-2.75.1,3.79,3.79,0,0,0-2.23,2.59,6,6,0,0,0-.21,1.33,8.33,8.33,0,0,0-2.1,5.52v3.73a8.3,8.3,0,0,0,2,5.42,12.11,12.11,0,0,0,5.07,8.83v.29l.06,0a19,19,0,0,1-.53,3.43v-.25a34.86,34.86,0,0,1-14,3.69h-.8a5.39,5.39,0,0,0-3.87,1.45c-2.15,2-5.92,5.22-8.23,5.22-.49,0-12.71,2.39-14.73,2.79l-3.78-3.7-.12.21-.22-.21a9.84,9.84,0,0,0-1.23.17,29.26,29.26,0,0,1-6.71-14.79s8.36-9.52,5.29-18.4c-2.63-7.56-9.86,8.65-11.91,13.53a3.9,3.9,0,0,0-.13,2.69l6.79,21.9a10.4,10.4,0,0,0-.54,5.33h-.07l5,6.34a26,26,0,0,0,9.54,1.56A33.28,33.28,0,0,0,207.63,217h1.15l-.22.08h5.89l3.75,11.34c-.13,1-1.94,15.43-3.39,18.65a8.14,8.14,0,0,0-.57,3.38,26.16,26.16,0,0,0,1.08,6.57l3.28-.12-.13.25a171.31,171.31,0,0,0-10.17,25.35l-4.78,9.68,3.58,43.44h.15l.27,0h0c.39.06,1,.15,1.74.24l-.28.49-7.9,13.07s-5.63,11.53,6.83,9.36c0,0,4.6-1.34,6.48-9.2l8.19-7.69s.39-5.1-1.93-7.14c-.15-2.36-.52-9.24,0-10.9.68-2-2.9-25.06-2.9-25.06s13-26.9,20.82-27.56a4.07,4.07,0,0,1,1.7.22c6.46,2.1,14.28,17.71,16.58,22.56h0l.1.23v0l.09.19v.05l.08.17v0l.07.15v0l.05.12v.05l0,.1v0l0,.07v.08h0l0,.06,1,30.24h0l.1,0h.05l-.09.63-.44,3.12s5.63,11.86,5.29,13.37,3.75,7.52,9.55,5.85,2.35-11.09,2.35-11.09l-5.59-11.52-.24-.51a10.41,10.41,0,0,0,1.56-1.17s-1.7-12.36,0-15,2.22-14.87,2.22-14.87-1.2-8.36-3.24-12l-8.58-30.63c2.57,2.39,4.57,3.33,6.24,3.27h.27a4.15,4.15,0,0,0,2.1-.53,6,6,0,0,0,1-.68c.06,0,.11-.11.16-.16h0c2.39-2-2.73-9.86-5.63-14.53-2.79-4.5,1.06-16.74,1.35-17.65a4.27,4.27,0,0,1,.83-.48,5.14,5.14,0,0,1,1.89-.42c2.78.1,6.2,1.7,10.43,2.51a49.34,49.34,0,0,0,8.91.69H289c1.19,0,2.26,0,3.14-.06a5.3,5.3,0,0,0,2.27-.61h0a6.8,6.8,0,0,0,1.62-1.31l7.43-8.39-.2.09a4.16,4.16,0,0,0,0-2.95l7.85-13.56a5.14,5.14,0,0,0,.38-4.47Z" style="fill:url(#linear-gradient)"/><path id="Path_507" data-name="Path 507" d="M223.35,340.81l-7.91,7.57c-1.81,7.75-6.26,9.06-6.26,9.06-12,2.14-6.59-9.2-6.59-9.2l7.63-12.9.94-1.59s5.44-1.65,9.06-.66a3.14,3.14,0,0,1,1.23.67C223.72,335.73,223.35,340.81,223.35,340.81Z" style="fill:#444277"/><path id="Path_508" data-name="Path 508" d="M272.11,347.56c-5.61,1.65-9.56-4.28-9.2-5.77s-5.12-13.16-5.12-13.16l.42-3.08.4-2.85,9.2.66.87,1.82,5.39,11.36S277.71,345.91,272.11,347.56Z" style="fill:#444277"/><path id="Path_509" data-name="Path 509" d="M221.54,335c-.87,1.49-7.89.74-11.32.27l.94-1.59s5.44-1.64,9.06-.66a3.25,3.25,0,0,1,1.24.67C221.5,334.54,221.54,335,221.54,335Z" style="opacity:0.100000001490116;isolation:isolate"/><path id="Path_510" data-name="Path 510" d="M268.69,325.17a10.64,10.64,0,0,1-10.49.37l.4-2.85,9.2.66Z" style="opacity:0.100000001490116;isolation:isolate"/><path id="Path_511" data-name="Path 511" d="M270,308.69c-1.65,2.63,0,14.82,0,14.82-5.44,4.95-11.87,1.32-11.87,1.32l-1-29.81s-10.71-24.55-18.29-23.89-20.09,27.18-20.09,27.18,3.45,22.73,2.79,24.7,0,11.53,0,11.53c-1.15,2-13.17,0-13.17,0l-3.46-42.83,4.59-9.56a169.56,169.56,0,0,1,9.8-25c1.34-2.79,2.23-4.5,2.23-4.5l8.76-1.82,28.45-5.9L269,282.15c2,3.62,3.13,11.86,3.13,11.86S271.61,306.05,270,308.69Z" style="fill:#565388"/><g id="Group_111" data-name="Group 111" style="opacity:0.100000001490116"><path id="Path_512" data-name="Path 512" d="M260.74,324.83l-1-29.81s-10.7-24.55-18.28-23.89a4.17,4.17,0,0,0-1,.22c7.39,2.46,16.64,23.67,16.64,23.67l1,29.81a11.61,11.61,0,0,0,6.55,1.2A11.74,11.74,0,0,1,260.74,324.83Z"/><path id="Path_513" data-name="Path 513" d="M211,334.55l-3.46-42.83,4.61-9.57a168.5,168.5,0,0,1,9.81-25c1.33-2.79,2.22-4.5,2.22-4.5l8.77-1.82,26-5.41-.14-.52-28.46,5.92-8.77,1.84s-.89,1.7-2.22,4.5a170.6,170.6,0,0,0-9.81,25l-4.61,9.56,3.46,42.83a61.16,61.16,0,0,0,10.46.84A75.93,75.93,0,0,1,211,334.55Z"/></g><path id="Path_514" data-name="Path 514" d="M191,201.87s-9.39.48-8.07,10.37l2.64.33,3.95-4.28,2-3.62v-.82Z" style="fill:#cfd3df"/><path id="Path_515" data-name="Path 515" d="M191,201.87s-9.39.48-8.07,10.37l2.64.33,3.95-4.28,2-3.62v-.82Z" style="opacity:0.100000001490116;isolation:isolate"/><path id="Path_516" data-name="Path 516" d="M295.42,205.49s7.74,4.11,5.76,8.89l-2.47,1-3.29-1.81-.48-4.28.33-3Z" style="fill:#cfd3df"/><path id="Path_517" data-name="Path 517" d="M295.42,205.49s7.74,4.11,5.76,8.89l-2.47,1-3.29-1.81-.48-4.28.33-3Z" style="opacity:0.100000001490116;isolation:isolate"/><rect id="Rectangle_86" data-name="Rectangle 86" x="228.87" y="162.99" width="27.01" height="20.43" rx="10.21" style="fill:#88465e"/><path id="Path_518" data-name="Path 518" d="M190.9,203.26l-5.77,9.2-.48-1.63-7.83-25.53a3.9,3.9,0,0,1,.12-2.65c2-4.81,9-20.82,11.49-13.34,3,8.72-5.1,18.12-5.1,18.12a29,29,0,0,0,6.89,15.08C190.64,203,190.9,203.26,190.9,203.26Z" style="fill:#ed8c9d"/><path id="Path_519" data-name="Path 519" d="M294.18,207.22s9.06-8.57,8.72-12c0,0-8.57-13.83-4.28-16.94,3.39-2.48,8.54,10,10.53,15.32a5.21,5.21,0,0,1-.34,4.36L298,217.1Z" style="fill:#ed8c9d"/><path id="Path_520" data-name="Path 520" d="M235.54,183.33s1.64,10.55-3.13,14.5,13.67,3.93,13.67,3.93l6.59-6.09s-7.57-7.09-5.27-12.36Z" style="fill:#ed8c9d"/><path id="Path_521" data-name="Path 521" d="M235.2,195.36a11.56,11.56,0,0,0,14.16-.66l11.53,23.89-.65,29.15s-23.89,12.35-33.77,4.78S224.82,241,224.82,241l-2.31-22.4,2.47-14.5s4.45-6.92,4.78-6.92S235.2,195.36,235.2,195.36Z" style="opacity:0.100000001490116;isolation:isolate"/><path id="Path_522" data-name="Path 522" d="M235.21,195a11.54,11.54,0,0,0,14.17-.66l11.53,23.89-.66,29.15s-23.89,12.36-33.77,4.78-1.65-11.53-1.65-11.53l-2.3-22.4,2.47-14.5s4.44-6.92,4.78-6.92S235.21,195,235.21,195Z" style="fill:#ecf1f6"/><path id="Path_523" data-name="Path 523" d="M235.21,192.56a30.49,30.49,0,0,1-14,3.64,5.22,5.22,0,0,0-3.73,1.42c-2.07,2-5.71,5.16-8,5.16-.48,0-14.5,2.79-14.5,2.79l-3.7-3.7s-5.52,10.79-8.16,10.29l4.78,6.27s9.06,3.95,20.92-.83h6.92l3.62,11.2s-1.81,15.16-3.29,18.45.48,9.72.48,9.72l13-.48s.66-6.43,1.65-7.27-3.46-29.15-3.46-29.15-3-16,7.91-21.75Z" style="opacity:0.100000001490116;isolation:isolate"/><path id="Path_524" data-name="Path 524" d="M230.3,250.86a42.62,42.62,0,0,0-1,5.94l-10,.38c1.33-2.8,2.22-4.5,2.22-4.5Z" style="opacity:0.100000001490116;isolation:isolate"/><path id="Path_525" data-name="Path 525" d="M190.9,203.27l-5.77,9.2-.48-1.64a42.84,42.84,0,0,0,5.58-8.33A9.72,9.72,0,0,0,190.9,203.27Z" style="opacity:0.100000001490116;isolation:isolate"/><path id="Path_526" data-name="Path 526" d="M235.21,192.56a32.74,32.74,0,0,1-14.34,3.64,5.18,5.18,0,0,0-3.72,1.42c-2.08,2-5.72,5.16-8,5.16-.48,0-14.5,2.79-14.5,2.79L191,201.86s-5.52,10.79-8.15,10.3l4.78,6.26s9.06,4,20.92-.82h6.92l3.62,11.2s-1.81,15.15-3.29,18.45.48,9.72.48,9.72l13-.49s.66-6.42,1.65-7.26-3.46-29.16-3.46-29.16-3-16,7.9-21.74Z" style="fill:#cfd3df"/><path id="Path_527" data-name="Path 527" d="M249.38,191.57a32.07,32.07,0,0,0,15.69,5.71,4.75,4.75,0,0,1,2.69,1,25.8,25.8,0,0,1,5.66,6.78c3.63,5.93,12.52,5.27,12.52,5.27s8.65-2.71,9.15-4.84c0,0,.24,11.62,5.68,8.81l-7.15,8.24a5,5,0,0,1-3.61,1.75,53.36,53.36,0,0,1-11.29-.63c-5.93-1.15-10.21-3.95-13.34-1.48,0,0-4.12,12.85-1.32,17.46S271.81,252,269.5,254s-5.11,1.81-9.72-3-5.11-12.84-5.11-12.84l1.15-20.76s-4.44-15.65-8.71-18.78Z" style="opacity:0.100000001490116;isolation:isolate"/><path id="Path_528" data-name="Path 528" d="M301.43,214.14l-7.18,8.27a5,5,0,0,1-1.72,1.29h0a4.88,4.88,0,0,1-1.87.44,52.76,52.76,0,0,1-11.3-.62c-5.55-1.08-9.66-3.6-12.73-1.9a5,5,0,0,0-.61.41s-4.12,12.85-1.32,17.46,7.75,12.35,5.44,14.33a5.4,5.4,0,0,1-1.29.84c-2.08.94-4.65.13-8.44-3.8-4.61-4.78-5.1-12.85-5.1-12.85l1.15-20.75s-4.45-15.65-8.72-18.77l1.89-6.76a34.11,34.11,0,0,0,15.78,5.55,4.79,4.79,0,0,1,2.69,1,26.19,26.19,0,0,1,5.67,6.78c3.62,5.93,12.52,5.27,12.52,5.27a48.39,48.39,0,0,0,6.23-2.48h0a9.43,9.43,0,0,0,2.9-1.93,1.37,1.37,0,0,0,.31-.58S296,216.94,301.43,214.14Z" style="opacity:0.100000001490116;isolation:isolate"/><path id="Path_529" data-name="Path 529" d="M301.1,214.3l-7.16,8.29a5.24,5.24,0,0,1-1.4,1.12h0a5,5,0,0,1-2.2.61,52.07,52.07,0,0,1-11.29-.63c-5.35-1-9.37-3.42-12.39-2.06a4.16,4.16,0,0,0-1,.58s-4.11,12.84-1.32,17.46S272.12,252,269.81,254a5.4,5.4,0,0,1-1,.67c-2.13,1.18-4.76.49-8.76-3.63-4.61-4.78-5.11-12.85-5.11-12.85l1.16-20.75s-4.45-15.65-8.72-18.78l2-7.09.23.17a34.3,34.3,0,0,0,15.79,5.55,4.75,4.75,0,0,1,2.69,1,26,26,0,0,1,5.66,6.78c3.62,5.93,12.52,5.27,12.52,5.27a47.26,47.26,0,0,0,6.23-2.48h0c1.5-.76,2.72-1.6,2.9-2.37V206C295.56,208,296.28,216.77,301.1,214.3Z" style="fill:#cfd3df"/><path id="Path_530" data-name="Path 530" d="M247.55,183.58H235.44a29.72,29.72,0,0,1,.23,5.81,12.42,12.42,0,0,0,12.79.92C247.3,188.16,246.59,185.72,247.55,183.58Z" style="opacity:0.100000001490116;isolation:isolate"/><circle id="Ellipse_148" data-name="Ellipse 148" cx="242.79" cy="179.38" r="12.02" style="fill:#ed8c9d"/><path id="Path_531" data-name="Path 531" d="M240.29,177.24a12.83,12.83,0,0,1,4-.37c1.2.24,2.23,1.07,3.43,1.32,2.31.48,4.46-1.22,6.21-2.81l3.78-3.44a7.77,7.77,0,0,0,2.13-2.6,2.6,2.6,0,0,0-.64-3.08c-1.38-1-3.76,0-4.76-1.38a7.21,7.21,0,0,1-.61-2.19,3.83,3.83,0,0,0-3.71-2.31,16.42,16.42,0,0,0-4.54,1,26.23,26.23,0,0,1-9.69.93,6.24,6.24,0,0,0-2.65.09,3.7,3.7,0,0,0-2.15,2.55c-.74,2.64.53,6.88,1.81,9.24S237.74,177.55,240.29,177.24Z" style="opacity:0.100000001490116;isolation:isolate"/><path id="Path_532" data-name="Path 532" d="M240.29,176.91a12.83,12.83,0,0,1,4-.37c1.2.24,2.23,1.07,3.43,1.32,2.31.48,4.46-1.22,6.21-2.81l3.78-3.44a7.77,7.77,0,0,0,2.13-2.6,2.6,2.6,0,0,0-.64-3.08c-1.38-1-3.76,0-4.76-1.38a7.21,7.21,0,0,1-.61-2.19,3.83,3.83,0,0,0-3.71-2.31,16.08,16.08,0,0,0-4.54,1,26.22,26.22,0,0,1-9.69.92,6.24,6.24,0,0,0-2.65.09,3.7,3.7,0,0,0-2.15,2.55c-.74,2.64.53,6.88,1.81,9.24S237.74,177.2,240.29,176.91Z" style="fill:#88465e"/><path id="Path_533" data-name="Path 533" d="M219.32,228.88a6.8,6.8,0,0,1,4,2,7.12,7.12,0,0,0,3.62,2.14" style="opacity:0.100000001490116;isolation:isolate"/><path id="Path_534" data-name="Path 534" d="M195.59,207.13s2.15,4.8.83,5.29-.83,4-.83,4" style="opacity:0.100000001490116;isolation:isolate"/><g id="Group_112" data-name="Group 112" style="opacity:0.100000001490116"><path id="Path_535" data-name="Path 535" d="M196.33,205.49s14-2.8,14.49-2.8c2.25,0,5.89-3.16,8-5.15a5.07,5.07,0,0,1,2.26-1.26h-.19a5.18,5.18,0,0,0-3.72,1.42c-2.08,2-5.71,5.16-8,5.16-.39,0-9.35,1.77-13,2.5Z"/><path id="Path_536" data-name="Path 536" d="M235.23,193.26v-.62a34.7,34.7,0,0,1-10.73,3.43A33.32,33.32,0,0,0,235.23,193.26Z"/><path id="Path_537" data-name="Path 537" d="M217.92,256.88s-2-6.43-.49-9.72,3.3-18.45,3.3-18.45l-3.62-11.2h-6.94l-.42.16h5.69l3.61,11.21s-1.81,15.15-3.3,18.45.49,9.71.49,9.71l13-.48v-.1Z"/></g><g id="Group_113" data-name="Group 113" style="opacity:0.100000001490116"><path id="Path_538" data-name="Path 538" d="M270,251.36a5.84,5.84,0,0,1-1,.68c-2.13,1.17-4.77.48-8.76-3.64-3.66-3.79-4.73-9.68-5-11.92l-.1,1.71s.49,8.07,5.11,12.84c4,4.14,6.63,4.82,8.76,3.64a6,6,0,0,0,1-.67c.69-.6.73-1.72.37-3.11A1.54,1.54,0,0,1,270,251.36Z"/><path id="Path_539" data-name="Path 539" d="M298.77,214.55l-4.67,5.39a5,5,0,0,1-1.39,1.12h0a5.14,5.14,0,0,1-2.2.61,52,52,0,0,1-11.29-.63c-5.36-1-9.37-3.43-12.39-2.06a4.49,4.49,0,0,0-1,.57s-2.66,8.31-2.25,13.95a53.84,53.84,0,0,1,2.25-11.31,4.53,4.53,0,0,1,1-.58c3-1.36,7,1,12.39,2.07a52.67,52.67,0,0,0,11.29.62,5,5,0,0,0,2.2-.61h0a4.8,4.8,0,0,0,1.39-1.1l7.18-8.28a2.82,2.82,0,0,1-2.51.24Z"/></g><path id="Path_540" data-name="Path 540" d="M101.36,273.86a.36.36,0,0,0,.44.06A1.61,1.61,0,0,1,101.36,273.86Z" style="fill:url(#linear-gradient-2)"/><path id="Path_541" data-name="Path 541" d="M150.71,193.65c-.87-.25-2.12-.66-3.62-1.19a18.79,18.79,0,0,0,3.35-6.74l-.13.05c0-.15.09-.3.13-.45-2.87,1.17-6.05-.81-8.07-3.35s-3.39-5.68-5.61-8a25.86,25.86,0,0,0-3-2.56,4.11,4.11,0,0,0-2.16-1c-1.29,0-2.3,1.23-3.55,1.6a4.93,4.93,0,0,1-2.47-.09c-3.21-.74-6.3-2.1-9.57-2.46a11.34,11.34,0,0,0-5.2.59c-1.65.62-2.4,1.87-3.73,2.87s-4.29,1-6,1.23a43.94,43.94,0,0,1-6.18.26,14.17,14.17,0,0,0-3.56.13c-2.45.54-4.42,2.49-6.26,4.36a3.23,3.23,0,0,0-1,1.62,2.44,2.44,0,0,0,0,.54,3.51,3.51,0,0,0,.25,1.43,18.72,18.72,0,0,0,2.37,4.73,13.57,13.57,0,0,1,2.05,3.36,6.35,6.35,0,0,1,.32,1.93,13.35,13.35,0,0,1-.22,2.09,26,26,0,0,1-1.59,5.54,9.84,9.84,0,0,0-.93,2.9,3.21,3.21,0,0,0,0,.62c-.12,3.2,3.1,5.5,3.73,8.67a5,5,0,0,1-2.77,5.49,3.26,3.26,0,0,0,.44.15,3.83,3.83,0,0,1-.44.25q.45.16.93.3a21.48,21.48,0,0,0-4.71,5.81C77.92,234.69,40,255.12,40,255.12l.56.32-.46.29c-3.28,2.19-11,8.55-4,16.61,0,0,5.44-8.58,9.25-12.24l.48-.45a1.14,1.14,0,0,1,.15.88l24.94-14s8.87-6.21,11.34-7.61a20.66,20.66,0,0,1,5.63-2.42l-.29.12a11.47,11.47,0,0,1,2.86-.4c4.41.06,9.2,3.3,10.77,16.11,2.11,17.15,1.14,20.24.46,20.66a1,1,0,0,1-.25,0l.07.05a1.28,1.28,0,0,1-.27-.05.41.41,0,0,0,.37.09.36.36,0,0,0,.27,0h.34c0,.16,0,.33,0,.49,0,0-.2.09,0,.1h0c0,1,0,2,0,3.12l-6.29.36.17-.9.07-.41c1.69-.13,3.29-.63,3.48-2,.41-3-3.71-4.61-7.22-4.81s-24.53,1.2-24.53,1.2-3.15,4.09,6.85,5.33l.93.48a111.5,111.5,0,0,1,11.77,8.37l.36.28-1.15.93c6.19,1.4,12.17,25,15.46,35.83s10.52,10.41,16.5,8.81c5.6-1.5,6.29-17.77,6.38-19.81v-.21l10,12.31.76.93.86.43c7.54,3.59,15.87-3.3,13.51-11.14s-6.12-19.6-8.6-24.55c-2.07-4.14-4.76-11-6.39-15.32a4.39,4.39,0,0,0,.62-.29s0-.2-.1-.55l.1-.05a149.83,149.83,0,0,1-2.53-21.31v-.77c1.8-.41,2.95-.57,2.95-.57l0-.39-.21.05,1-11.47s3.68-7.83.86-11.09a6.8,6.8,0,0,1-1.65-3.39c-.49-3,0-8,6.56-12.15,10.1-6.41,14-11.62,14-11.62S156.89,195.47,150.71,193.65Zm-20.06,8v-5.3c1.87-.1,3.78.13,5.66,0a14.94,14.94,0,0,0,2.74-.46l.45.31a49.38,49.38,0,0,1-8.86,5.45ZM102,284.72c.74.51,1.49,1,2.22,1.58.46,2.62.86,4.46.89,4.59A36.77,36.77,0,0,0,102,284.72Z" style="fill:url(#linear-gradient-3)"/><path id="Path_542" data-name="Path 542" d="M118,280.36l-.43,2.38-.34,1.81-.61,3.3L110.72,292l-1.42-1.18A104.36,104.36,0,0,0,98,282.58a13,13,0,0,0-3.1-1.43Z" style="fill:#f9bcc6"/><path id="Path_543" data-name="Path 543" d="M118,280.36l-.44,2.38a18.87,18.87,0,0,1-3.9-.2l-13.8.2c-.66,0-1.27-.1-1.84-.15a12.22,12.22,0,0,0-3.09-1.43Z" style="opacity:0.100000001490116;isolation:isolate"/><path id="Path_544" data-name="Path 544" d="M113.67,282.15s6.91,1.18,7.3-1.78-3.55-4.52-6.9-4.74-23.47,1.18-23.47,1.18-3.55,4.73,9.27,5.52Z" style="fill:#7679b4"/><path id="Path_545" data-name="Path 545" d="M118,280.36l-.43,2.38-.34,1.81-.61,3.3L110.72,292l-1.42-1.18A104.36,104.36,0,0,0,98,282.58a13,13,0,0,0-3.1-1.43Z" style="opacity:0.100000001490116;isolation:isolate"/><path id="Path_546" data-name="Path 546" d="M118,280.36l-.44,2.38a18.87,18.87,0,0,1-3.9-.2l-13.8.2c-.66,0-1.27-.1-1.84-.15a12.22,12.22,0,0,0-3.09-1.43Z" style="opacity:0.100000001490116;isolation:isolate"/><path id="Path_547" data-name="Path 547" d="M113.67,282.15s6.91,1.18,7.3-1.78-3.55-4.52-6.9-4.74-23.47,1.18-23.47,1.18-3.55,4.73,9.27,5.52Z" style="opacity:0.100000001490116;isolation:isolate"/><rect id="Rectangle_87" data-name="Rectangle 87" x="92.67" y="184.91" width="36.09" height="42.8" style="fill:#a76478"/><rect id="Rectangle_88" data-name="Rectangle 88" x="92.67" y="184.91" width="36.09" height="42.8" style="opacity:0.100000001490116;isolation:isolate"/><path id="Path_548" data-name="Path 548" d="M50.37,258.18a5.69,5.69,0,0,0-2.2,1.55c-3.65,3.6-8.85,12-8.85,12-6.66-7.93.71-14.2,3.87-16.35.77-.53,1.28-.81,1.28-.81Z" style="fill:#f9bcc6"/><path id="Path_549" data-name="Path 549" d="M117.62,198.42s1.78,12.42,7.89,15.38-7.89,8.48-7.89,8.48l-19.13-7.1s10.85-3.55,8.68-14Z" style="fill:#f9bcc6"/><path id="Path_550" data-name="Path 550" d="M97.13,273.16l-.44,2.38-.33,1.81-.61,3.31-5.92,4.14s-.53-.46-1.42-1.18a103.38,103.38,0,0,0-11.26-8.23A13,13,0,0,0,74.06,274Z" style="fill:#f9bcc6"/><path id="Path_551" data-name="Path 551" d="M97.13,273.16l-.44,2.38a18.87,18.87,0,0,1-3.9-.2l-13.81.2c-.66,0-1.26-.1-1.83-.15a12.45,12.45,0,0,0-3.1-1.43Z" style="opacity:0.100000001490116;isolation:isolate"/><path id="Path_552" data-name="Path 552" d="M92.77,274.94s6.9,1.19,7.3-1.78-3.55-4.53-6.91-4.73-23.47,1.19-23.47,1.19-3.55,4.73,9.27,5.52Z" style="fill:#7679b4"/><path id="Path_553" data-name="Path 553" d="M96.34,277.35l-.61,3.31-5.91,4.14-1.42-1.18,7.83-6.41Z" style="opacity:0.100000001490116;isolation:isolate"/><path id="Path_554" data-name="Path 554" d="M135.38,322.49l-.82-.42-.72-.92-9.53-12.1v.21c-.07,2-.75,18-6.11,19.52-5.72,1.58-12.62,2-15.77-8.68s-8.88-33.92-14.8-35.3l8.78-7.2s5.81,6.78,8.18,13.31c-.09-.42-4.1-19.16-.79-22.47h28.79s4.44,12.65,7.5,18.93c2.37,4.88,5.93,16.39,8.23,24.18a9.26,9.26,0,0,1-12.94,10.94Z" style="fill:#7679b4"/><path id="Path_555" data-name="Path 555" d="M134.58,272c-4.44,2.63-24,1.56-30.33,1.13l-1.73-.13c-.19,0,0-.11,0-.11l.18-1.79,4.73-12,25.35-14.67a21.73,21.73,0,0,0-.65,6.62A154,154,0,0,0,134.58,272Z" style="opacity:0.100000001490116;isolation:isolate"/><path id="Path_556" data-name="Path 556" d="M134.58,271.39c-4.44,2.64-24,1.56-30.33,1.14l-1.73-.14h-.29l.32-.08,1.56-.41,3.35-13.41,25.35-14.69a21.73,21.73,0,0,0-.65,6.62A155.31,155.31,0,0,0,134.58,271.39Z" style="fill:#f2f1f2"/><path id="Path_557" data-name="Path 557" d="M132.16,250.41c-5.15,1.19-16.49,4.68-20.85,13.07-2.9,5.61-5.33,8-7.06,9l-1.73-.14,0-.1,1.56-.41,3.35-13.42,25.35-14.68A22.22,22.22,0,0,0,132.16,250.41Z" style="opacity:0.100000001490116;isolation:isolate"/><path id="Path_558" data-name="Path 558" d="M44.45,254.63l5.92,3.55a5.69,5.69,0,0,0-2.2,1.55c-.49-1.45-3.6-3.45-5-4.3C43.94,254.91,44.45,254.63,44.45,254.63Z" style="opacity:0.100000001490116;isolation:isolate"/><path id="Path_559" data-name="Path 559" d="M101.48,272.63a.35.35,0,0,1-.41-.06A1.4,1.4,0,0,0,101.48,272.63Z" style="opacity:0.100000001490116;isolation:isolate"/><path id="Path_560" data-name="Path 560" d="M114.85,213a11.73,11.73,0,0,1-9.07-3.35S90,214.2,84.68,224.46s-41.62,30.37-41.62,30.37,6.3,3.55,5.72,5.32l23.87-13.8s8.48-6.12,10.85-7.5,15.38-9.86,18.14,13.22,0,20.33,0,20.33,4,1.38,9.69-9.68,23.47-13.61,23.47-13.61l1-11.62s3.52-7.71.83-10.92a6.78,6.78,0,0,1-1.58-3.34c-.45-2.95,0-7.88,6.29-12,9.69-6.3,13.42-11.44,13.42-11.44s.19-3.75-5.72-5.52-30-11.44-30-11.44l-.79,3.35,18.93,13.42s-9.46,7.69-17,7.49C120.18,207.09,121.56,212.82,114.85,213Z" style="fill:#565389"/><path id="Path_561" data-name="Path 561" d="M118.51,203.83a38.2,38.2,0,0,1-1.09-4.85L107,201.76a11.64,11.64,0,0,1-.24,6,11.23,11.23,0,0,0,11.78-4Z" style="opacity:0.100000001490116;isolation:isolate"/><circle id="Ellipse_149" data-name="Ellipse 149" cx="109.83" cy="196.35" r="11.24" style="fill:#f9bcc6"/><path id="Path_562" data-name="Path 562" d="M115.81,170.77c3.12.36,6.09,1.7,9.16,2.42a4.54,4.54,0,0,0,2.37.1c1.18-.37,2.16-1.62,3.39-1.59a3.56,3.56,0,0,1,2.06,1.05,24.25,24.25,0,0,1,2.84,2.52c2.12,2.3,3.43,5.4,5.37,7.9s5,4.44,7.72,3.29c-1.86,7.26-8,12.82-14.6,13.27-2.63.18-5.33-.37-7.9.41a6.81,6.81,0,0,1-2,.48c-1.45,0-2.66-1.35-3.58-2.66-2.15-3.09-3.87-6.59-6.29-9.41a5.16,5.16,0,0,0-2.87-2,5.35,5.35,0,0,0-3.18.89,15.12,15.12,0,0,0-4.65,3.23,6.47,6.47,0,0,0-1.57,5.66,13.6,13.6,0,0,1,1,3.18c0,1.79-1.56,3.1-1.87,4.84a18.07,18.07,0,0,0-.08,2.21,9,9,0,0,1-3.34,5.85,4.27,4.27,0,0,0-1.52,2.12c-.13.61,0,1.27-.08,1.89A3.44,3.44,0,0,1,93,219a9.14,9.14,0,0,1-4.74-.56,5.46,5.46,0,0,0,2.65-5.81c-.61-3.2-3.82-5.49-3.56-8.76a10,10,0,0,1,.89-2.88,26.5,26.5,0,0,0,1.52-5.46,9.18,9.18,0,0,0-.09-4.36,13.67,13.67,0,0,0-2-3.31,18.81,18.81,0,0,1-2.27-4.66,3.25,3.25,0,0,1-.22-1.54,3.16,3.16,0,0,1,1-1.6c1.76-1.85,3.65-3.77,6-4.3a13.28,13.28,0,0,1,3.39-.13,40.2,40.2,0,0,0,5.91-.26c1.62-.18,4.36-.16,5.73-1.22s2-2.2,3.57-2.82A10.37,10.37,0,0,1,115.81,170.77Z" style="opacity:0.100000001490116;isolation:isolate"/><path id="Path_563" data-name="Path 563" d="M122.06,286.87s6.5,12.82,4.53,16.77" style="opacity:0.100000001490116;isolation:isolate"/><path id="Path_564" data-name="Path 564" d="M120.68,321.16l-9.53-12.11v.21s-.55-3.91,1.26-2.59c4,2.88,10.34,7.59,10.48,8.41S121.6,319.15,120.68,321.16Z" style="opacity:0.100000001490116;isolation:isolate"/><g id="Group_114" data-name="Group 114" style="opacity:0.100000001490116"><path id="Path_565" data-name="Path 565" d="M120.37,207.09s.8,3.33-1.8,5a4.47,4.47,0,0,0,4.1-4.81c0-.12,0-.23,0-.35A13.15,13.15,0,0,1,120.37,207.09Z"/><path id="Path_566" data-name="Path 566" d="M45.43,254s36.29-20.12,41.62-30.37c3.82-7.36,13-11.78,17.92-13.68-3.57,1.19-15.57,5.78-20.09,14.47-5.33,10.25-41.62,30.36-41.62,30.36Z"/><path id="Path_567" data-name="Path 567" d="M127.43,205.53a43.39,43.39,0,0,0,12.08-6.72l-18.94-13.42.43-1.84-1.81-.73-.79,3.35,18.94,13.42A46.1,46.1,0,0,1,127.43,205.53Z"/><path id="Path_568" data-name="Path 568" d="M127.55,251A46.36,46.36,0,0,1,135,249.1l0-.38A49.71,49.71,0,0,0,127.55,251Z"/><path id="Path_569" data-name="Path 569" d="M104.6,271.64h-.17a.38.38,0,0,1-.42-.05,2,2,0,0,0,.42.05c.64-.38,1.62-3.32-.42-20.37-2.18-18.19-10.73-16.77-15.42-14.67,4.78-1.32,11.37-.18,13.24,15.46,2,17.05,1.07,20,.42,20.37a4.35,4.35,0,0,0,2.34-.79Z"/><path id="Path_570" data-name="Path 570" d="M102.26,272.43a1.51,1.51,0,0,1-.42-.05A.35.35,0,0,0,102.26,272.43Z"/></g><path id="Path_571" data-name="Path 571" d="M115.81,170.39c3.12.35,6.09,1.7,9.16,2.42a4.43,4.43,0,0,0,2.37.09c1.18-.36,2.16-1.61,3.39-1.58a3.61,3.61,0,0,1,2.06,1,24.33,24.33,0,0,1,2.84,2.53c2.12,2.3,3.43,5.4,5.37,7.89s5,4.45,7.72,3.3c-1.86,7.26-8,12.82-14.6,13.27-2.63.18-5.33-.37-7.9.4a6.83,6.83,0,0,1-2,.49c-1.45,0-2.66-1.35-3.58-2.67-2.15-3.08-3.87-6.58-6.29-9.4a5.16,5.16,0,0,0-2.87-2,5.35,5.35,0,0,0-3.18.89,15.12,15.12,0,0,0-4.65,3.23,6.47,6.47,0,0,0-1.57,5.66,13.6,13.6,0,0,1,1,3.18c0,1.79-1.56,3.1-1.87,4.84a18.07,18.07,0,0,0-.08,2.21A9,9,0,0,1,97.77,212a4.27,4.27,0,0,0-1.52,2.12c-.13.61,0,1.27-.08,1.89A3.44,3.44,0,0,1,93,218.59a9.14,9.14,0,0,1-4.74-.56,5.46,5.46,0,0,0,2.65-5.81c-.61-3.2-3.82-5.5-3.56-8.76a10,10,0,0,1,.89-2.88,26.5,26.5,0,0,0,1.52-5.46,9.18,9.18,0,0,0-.09-4.36,13.67,13.67,0,0,0-2-3.31,18.7,18.7,0,0,1-2.27-4.67,2.53,2.53,0,0,1,.75-3.13c1.76-1.85,3.65-3.77,6-4.3a13.75,13.75,0,0,1,3.39-.14,38.86,38.86,0,0,0,5.91-.25c1.62-.19,4.36-.16,5.73-1.22s2-2.2,3.57-2.82A10.37,10.37,0,0,1,115.81,170.39Z" style="fill:#a76478"/><path id="Path_572" data-name="Path 572" d="M423.69,145.15h0V145a.57.57,0,0,0,0-.18h-.08v-.4c-.2-4.48-6.4-14-8.89-11.25-2.18,2.45,1.11,8.65,2.78,11.44l.15.25-.08-.05s-6.93,20.66-7.75,21.47-6.52,17.05-14,18.88c-1.49.36-2.72.68-3.76,1l.09-.27a30.22,30.22,0,0,0,1.31-4.85c.25-1.76,0-3.89-.89-4.75-.43-.43-1-.48-1.32-1.16a5.23,5.23,0,0,1-.37-1.87l-.64-7.83.44-.13c2.7-.87,5.31-2.9,5.61-5.66a1.52,1.52,0,0,1-.28.09c0-.16.06-.32.08-.48-2.26.89-4.36-1.45-6.54-2.51-3.59-1.75-7.69-.1-11.39.3-4.2.46-8.19-1.28-12.48-1-2.33.18-4.93,1.76-4.8,4.06.07,1.26,1,2.33,1.34,3.54.92,2.93-1.14,5.87-2.95,8.37a12.43,12.43,0,0,0-2.54,5.57c-4.17-4.36-8.68-9.39-9.2-11.29L335.4,145.61s-.29.3-.75.75c-.07-.22-.16-.48-.26-.74-1.54-4.32-5.89-14.77-11.42-12.86s2.29,12.64,5.69,16.91l.48.59a1.49,1.49,0,0,1-.86,0l13.45,23.07s2.45,4.42,4.69,5.62c0,0,16.71,21.07,16.92,25.28s7.51,15.45,7.51,15.45,2.44,18.26-1.84,21.47h.71c-.21.2-.41.42-.63.66-3.17,3.52-7.22,11-1.68,23.87,8.15,18.88,9.37,26.28,9.37,26.28s-15.49.8-18.54,1.41c-2.71.52-13.21.9-15.61,1-.86-1-3.39-3.2-6.81,0-4.28,4-7.34,17.44-7.34,17.44s-1.63,10.83,3.88,8c0,0,6.52-9,8.35-9.43.91-.2,1.88-1.54,2.61-2.84l0,0h0s.22-.1.51-.22h0c1.36-.53,5.09-1.83,8-1.18a145.74,145.74,0,0,0,15.78.41c-1.64,3.93-4.57,14.05-4.57,14.05s-1.23,9.43,2.84,9.05c2.9-.29,7.36-7.71,9.68-11.95,1.69-1.23,6.52-5.67,10.08-5.33l24-9.22s5.71-3.21,2.65-13.85c-2.42-8.45-9.31-25.76-12-32.5h0l-.08-.18c-.66-1.63-1.06-2.6-1.06-2.6h0a39.55,39.55,0,0,1-2.18-9.54c0-.26-.05-.52-.07-.78a4.24,4.24,0,0,0,.95-.54s-2.24-22.67,0-25.08h0l0-.05h0v0h0l0-.05h0l.09-.11h0l.11-.13h0l.43-.6h0a16.65,16.65,0,0,0,3-11.24h0c0-.22-.07-.43-.11-.65h0a13.81,13.81,0,0,0-1.39-3.94,10.08,10.08,0,0,1-.18-1.55v-1.38a4,4,0,0,1,.07-.69v-.09a.75.75,0,0,1,0-.26v-.12a1.22,1.22,0,0,1,.06-.26v-.09c0-.12.06-.23.1-.35v-.06c0-.1.06-.19.1-.29l0-.11.09-.23.05-.12.14-.26,0-.07.18-.32.06-.08.16-.23.07-.1.17-.2.08-.09.27-.27c2.65-2.42,14.47-20.26,14.47-20.26s2.85-4,2.85-6.62C419.15,167.06,424.19,150.26,423.69,145.15ZM392,295.14c-.29-2.75-.58-6.16-.84-9.68l4.61,7.18S395.28,294.83,392,295.14Z" style="fill:url(#linear-gradient-4)"/><path id="Path_573" data-name="Path 573" d="M343.89,293.62s-2.76-4.36-6.91-.39-7.1,17.15-7.1,17.15-1.58,10.66,3.75,7.89c0,0,6.3-8.87,8.09-9.27s3.75-5.32,3.75-5.32Z" style="fill:#493545"/><path id="Path_574" data-name="Path 574" d="M373.47,304.27s-3.75-1.78-4.93-.39-5.13,15.18-5.13,15.18-1.18,9.08,2.76,8.68S377,313.13,377,313.13Z" style="fill:#493545"/><path id="Path_575" data-name="Path 575" d="M373.47,304.27s-3.75-1.78-4.93-.39-5.13,15.18-5.13,15.18-1.18,9.08,2.76,8.68S377,313.13,377,313.13Z" style="opacity:0.050000000745058;isolation:isolate"/><path id="Path_576" data-name="Path 576" d="M386.49,277.45,395,290.66s-.6,3-5.72,2.38l-17.56,11s-1.52,13.44,3.35,12.23c.8-.2,6.3-5.92,10.26-5.52l23.28-9.08s5.52-3.16,2.56-13.6-12.74-34.69-12.74-34.69l-15.46,8.65Z" style="fill:#3e3d77"/><path id="Path_577" data-name="Path 577" d="M386.49,277.45,395,290.66s-.6,3-5.72,2.38l-17.56,11s-1.52,13.44,3.35,12.23c.8-.2,6.3-5.92,10.26-5.52l23.28-9.08s5.52-3.16,2.56-13.6-12.74-34.69-12.74-34.69l-15.46,8.65Z" style="opacity:0.050000000745058;isolation:isolate"/><path id="Path_578" data-name="Path 578" d="M391.81,297c1.19,7.5-5.52,8.09-5.52,8.09s-30.18.59-33.72-.2-8.29,1.38-8.29,1.38c-6.12-3.75-1.19-13-1.19-13s12.63-.4,15.59-1,17.94-1.4,17.94-1.4-1.18-7.29-9.07-25.83c-5.36-12.59-1.45-20,1.63-23.46a13.38,13.38,0,0,1,2.71-2.38l24.26,1.19a29.85,29.85,0,0,0,.13,3.66,38.93,38.93,0,0,0,3.22,12.11c-1.38,0-10.26,8.28-10.26,8.28S390.63,289.48,391.81,297Z" style="fill:#3e3d77"/><path id="Path_579" data-name="Path 579" d="M344.87,294s12.63-.4,15.58-1,17.95-1.38,17.95-1.38-1.19-7.3-9.07-25.83c-5.37-12.59-1.45-20,1.63-23.46a12.5,12.5,0,0,1,2.7-2.38l22.48,1.09v-.7l-24.26-1.19a13.38,13.38,0,0,0-2.71,2.38c-3.07,3.46-7,10.87-1.63,23.46,7.91,18.52,9.09,25.82,9.09,25.82s-15,.79-17.95,1.38-15.58,1-15.58,1-4.93,9.27,1.18,13l.49-.22C340.7,301.86,344.87,294,344.87,294Z" style="opacity:0.100000001490116;isolation:isolate"/><rect id="Rectangle_89" data-name="Rectangle 89" x="368.73" y="166.81" width="12.23" height="30.96" style="fill:#493545"/><rect id="Rectangle_90" data-name="Rectangle 90" x="368.73" y="166.81" width="12.23" height="30.96" style="opacity:0.100000001490116;isolation:isolate"/><path id="Path_580" data-name="Path 580" d="M388,162.27c.42.11.9.13,1.19.71a4.46,4.46,0,0,1,.29,1.45l.76,9.57a5.78,5.78,0,0,0,.36,1.83c.33.64.86.72,1.29,1.14.84.84,1.09,2.95.86,4.67a31.44,31.44,0,0,1-1.28,4.75,45,45,0,0,1-2,6.61c-.92,1.88-2.6,2.9-3.69,1.32s-.94-4.76-1.14-7.38c-.34-4.35-2-8.11-2.16-12.5-.09-3.55.86-6.86,1.45-10.23.43-2.31.45-5.11,1.07-7.19C385.45,159.5,386.44,161.85,388,162.27Z" style="fill:#493545"/><path id="Path_581" data-name="Path 581" d="M388,162.27c.42.11.9.13,1.19.71a4.46,4.46,0,0,1,.29,1.45l.76,9.57a5.78,5.78,0,0,0,.36,1.83c.33.64.86.72,1.29,1.14.84.84,1.09,2.95.86,4.67a31.44,31.44,0,0,1-1.28,4.75,45,45,0,0,1-2,6.61c-.92,1.88-2.6,2.9-3.69,1.32s-.94-4.76-1.14-7.38c-.34-4.35-2-8.11-2.16-12.5-.09-3.55.86-6.86,1.45-10.23.43-2.31.45-5.11,1.07-7.19C385.45,159.5,386.44,161.85,388,162.27Z" style="opacity:0.100000001490116;isolation:isolate"/><path id="Path_582" data-name="Path 582" d="M336.2,148.66l-4.73,4s-.56-.66-1.4-1.72c-3.29-4.2-10.85-14.73-5.51-16.62s9.57,8.39,11.06,12.63C336,148,336.2,148.66,336.2,148.66Z" style="fill:#c77485"/><path id="Path_583" data-name="Path 583" d="M421.59,147.28c-2,3-4.73,0-4.73,0s-.35-.52-.85-1.38c-1.62-2.74-4.8-8.83-2.7-11.24,2.42-2.76,8.42,6.65,8.61,11.06A2.65,2.65,0,0,1,421.59,147.28Z" style="fill:#c77485"/><path id="Path_584" data-name="Path 584" d="M373.07,179.23s3.95,12.63,2.76,16.37,8.49,8.1,8.49,8.1h11s3.95-8.09,3-10.46-9.47-4.14-9.47-4.14-4.93,0-4.73-13.21Z" style="fill:#c77485"/><path id="Path_585" data-name="Path 585" d="M336.2,148.66l-4.74,4s-.56-.66-1.4-1.72c1.72-.31,4.39-2.82,5.56-4C336,148,336.2,148.66,336.2,148.66Z" style="opacity:0.100000001490116;isolation:isolate"/><path id="Path_586" data-name="Path 586" d="M421.59,147.28c-2,3-4.73,0-4.73,0s-.35-.52-.85-1.38l.06-.2c1.28.92,5.26.14,5.85,0A2.64,2.64,0,0,1,421.59,147.28Z" style="opacity:0.100000001490116;isolation:isolate"/><path id="Path_587" data-name="Path 587" d="M396.28,244c-6.1,2.78-25.93-2.18-27.12-2.47a13.13,13.13,0,0,1,2.71-2.39l24.26,1.19A32.18,32.18,0,0,0,396.28,244Z" style="opacity:0.100000001490116;isolation:isolate"/><path id="Path_588" data-name="Path 588" d="M375.64,190.08s-4.73,1.58-11.44-4.54c0,0-15-14.79-16-18.34L336.6,146.86s-4.93,5.33-6.9,4.54l13,22.68s2.37,4.36,4.54,5.52c0,0,16.17,20.71,16.37,24.85s7.28,15.23,7.28,15.23,2.38,17.95-1.77,21.1c0,0,23.07,5.92,28,2,0,0-2.17-22.27,0-24.65,0,0,6.71-7.89,2.17-16.57,0,0-1-4.73,1.58-7.1s14-19.92,14-19.92,2.76-4,2.76-6.51c0,0,5.13-17.36,4.36-21.89,0,0-4.54,1-5.92,0,0,0-6.7,20.33-7.49,21.1S402.29,184,395,185.76s-8.48,2.56-8.48,2.56,14.2,8.88,7.3,12.82S375.64,190.08,375.64,190.08Z" style="fill:#f6a8c3"/><path id="Path_589" data-name="Path 589" d="M384.6,182.27a37.46,37.46,0,0,1-.28-5.6L373.27,180a14.74,14.74,0,0,1,.69,2.26c1.27.56,3,1.88,4.44,1.88a10,10,0,0,0,6.2-1.89Z" style="opacity:0.100000001490116;isolation:isolate"/><circle id="Ellipse_150" data-name="Ellipse 150" cx="378.2" cy="173.31" r="10.26" style="fill:#c77485"/><path id="Path_590" data-name="Path 590" d="M366,157.51c-2.26.18-4.78,1.74-4.65,4a15.58,15.58,0,0,0,1.29,3.49c.9,2.88-1.1,5.77-2.85,8.23s-3.39,5.72-1.89,8.32a20.21,20.21,0,0,0,1.39,1.81c1.85,2.5,1.83,5.88,2.65,8.89a15.61,15.61,0,0,0,18.32,11.14,9.76,9.76,0,0,1-2.06-6.59c.11-1.73.67-3.53,0-5.12-.86-2.05-3.39-2.86-4.69-4.65a7.42,7.42,0,0,1-.59-6.41c.63-2.14,1.72-4.12,2.24-6.3a17.92,17.92,0,0,1,.49-1.88c.91-2.59,3.63-4.09,6.29-4.73s5.46-.68,8.06-1.53,5.13-2.84,5.43-5.56c-2.19.88-4.21-1.41-6.32-2.46-3.48-1.72-7.45-.1-11,.29C374,158.9,370.13,157.21,366,157.51Z" style="opacity:0.100000001490116;isolation:isolate"/><path id="Path_591" data-name="Path 591" d="M365.8,157.12c-2.26.18-4.77,1.74-4.65,4a14.89,14.89,0,0,0,1.3,3.48c.89,2.89-1.1,5.78-2.86,8.24s-3.39,5.71-1.88,8.32a20.1,20.1,0,0,0,1.38,1.81c1.85,2.5,1.83,5.88,2.65,8.89A15.6,15.6,0,0,0,380.06,203,9.78,9.78,0,0,1,378,196.4c.12-1.72.67-3.52,0-5.11-.86-2-3.39-2.86-4.69-4.65a7.42,7.42,0,0,1-.58-6.41c.63-2.14,1.71-4.12,2.24-6.3.13-.63.29-1.26.48-1.88.91-2.59,3.63-4.09,6.3-4.73s5.46-.69,8.06-1.53,5.13-2.84,5.43-5.56c-2.19.87-4.22-1.41-6.33-2.46-3.48-1.73-7.44-.1-11,.29C373.81,158.51,370,156.8,365.8,157.12Z" style="fill:#493545"/><path id="Path_592" data-name="Path 592" d="M388.36,196.1s4.11,3.66,4.92,5.28" style="opacity:0.100000001490116;isolation:isolate"/><path id="Path_593" data-name="Path 593" d="M397.25,218a43.85,43.85,0,0,0-7.5.59c-2.37.59-8.09,0-8.09,0" style="opacity:0.100000001490116;isolation:isolate"/><g id="Group_115" data-name="Group 115" style="opacity:0.100000001490116"><path id="Path_594" data-name="Path 594" d="M393.78,201.13a5.14,5.14,0,0,1-1.41.54,5.46,5.46,0,0,0,3.78-.54c6.91-3.95-7.3-12.82-7.3-12.82h-2.37S400.69,197.18,393.78,201.13Z"/><path id="Path_595" data-name="Path 595" d="M422,146.46c0-.12,0-.24-.05-.36a22.45,22.45,0,0,1-2.46.37,10.54,10.54,0,0,0,2.51,0Z"/><path id="Path_596" data-name="Path 596" d="M371.5,240.77c4.14-3.16,1.78-21.1,1.78-21.1s-7.1-11-7.3-15.19-16.36-24.85-16.36-24.85c-2.17-1.19-4.54-5.52-4.54-5.52s-13.42-21.89-15.39-22.68l13,22.68s2.37,4.36,4.54,5.52c0,0,16.17,20.71,16.36,24.85s7.3,15.2,7.3,15.2,2.37,17.95-1.78,21.1c0,0,14.18,3.64,22.69,3.31C383.29,243.79,371.5,240.77,371.5,240.77Z"/><path id="Path_597" data-name="Path 597" d="M375.76,190.23l-.12-.15-.41.1Z"/></g><g id="Group_116" data-name="Group 116" style="opacity:0.100000001490116"><path id="Path_598" data-name="Path 598" d="M422,146.08l-.13,0c-.2,6.06-4.41,20.3-4.41,20.3,0,2.56-2.76,6.5-2.76,6.5s-11.43,17.56-14,19.92-1.58,7.1-1.58,7.1l0,.05a7.17,7.17,0,0,1,1.75-5.57c2.56-2.37,14-19.92,14-19.92s2.76-3.95,2.76-6.51C417.65,168,422.77,150.64,422,146.08Z"/><path id="Path_599" data-name="Path 599" d="M396.94,216.51c.3,1.67.1-.1.2,1.58,0,0,4.84-5.68,3.52-12.7A17.23,17.23,0,0,1,396.94,216.51Z"/></g><ellipse id="Ellipse_151" data-name="Ellipse 151" cx="247.57" cy="396.27" rx="207.09" ry="19.89" style="fill:#73bf44;opacity:0.100000001490116;isolation:isolate"/><g id="Group_121" data-name="Group 121"><path id="Path_600" data-name="Path 600" d="M54,389.27s-7.05-23.95,1.32-41.57A37.83,37.83,0,0,0,58.33,324,63.55,63.55,0,0,0,55,312.84" style="fill:none;stroke:#545461;stroke-miterlimit:10;stroke-width:2.63571715336514px"/><path id="Path_601" data-name="Path 601" d="M60.2,301.71c0,2.93-5.33,11.44-5.33,11.44s-5.33-8.51-5.33-11.44a5.33,5.33,0,1,1,10.63-.79,5.21,5.21,0,0,1,0,.79Z" style="fill:#73bf44"/><path id="Path_602" data-name="Path 602" d="M69,318c-1.6,2.46-10.68,6.72-10.68,6.72s.17-10,1.76-12.49a5.33,5.33,0,0,1,9.33,5.14A5.23,5.23,0,0,1,69,318Z" style="fill:#73bf44"/><path id="Path_603" data-name="Path 603" d="M68.58,345.74c-2.62,1.32-12.59.4-12.59.4s5.21-8.57,7.83-9.89a5.32,5.32,0,0,1,5.46,9.14,5.45,5.45,0,0,1-.68.35Z" style="fill:#73bf44"/><path id="Path_604" data-name="Path 604" d="M63.56,366.69c-2.36,1.74-12.36,2.53-12.36,2.53s3.68-9.33,6-11.08a5.33,5.33,0,0,1,6.3,8.54Z" style="fill:#73bf44"/><path id="Path_605" data-name="Path 605" d="M47.12,325.25c2.11,2,11.91,4.16,11.91,4.16s-2.42-9.74-4.51-11.79a5.33,5.33,0,1,0-8,7.1,6.88,6.88,0,0,0,.55.53Z" style="fill:#73bf44"/><path id="Path_606" data-name="Path 606" d="M41.57,349.83c2.62,1.31,12.59.4,12.59.4s-5.19-8.57-7.81-9.87a5.33,5.33,0,0,0-4.78,9.49Z" style="fill:#73bf44"/><path id="Path_607" data-name="Path 607" d="M39.44,374.46C41.79,376.2,51.8,377,51.8,377s-3.68-9.33-6-11.08a5.33,5.33,0,0,0-7.06,8,5.13,5.13,0,0,0,.76.56Z" style="fill:#73bf44"/><path id="Path_608" data-name="Path 608" d="M60.2,301.71c0,2.93-5.33,11.44-5.33,11.44s-5.33-8.51-5.33-11.44a5.33,5.33,0,1,1,10.63-.79,5.21,5.21,0,0,1,0,.79Z" style="fill:#73bf44;opacity:0.100000001490116;isolation:isolate"/><path id="Path_609" data-name="Path 609" d="M69,318c-1.6,2.46-10.68,6.72-10.68,6.72s.17-10,1.76-12.49a5.33,5.33,0,0,1,9.33,5.14A5.23,5.23,0,0,1,69,318Z" style="fill:#73bf44;opacity:0.100000001490116;isolation:isolate"/><path id="Path_610" data-name="Path 610" d="M68.58,345.74c-2.62,1.32-12.59.4-12.59.4s5.21-8.57,7.83-9.89a5.32,5.32,0,0,1,5.46,9.14,5.45,5.45,0,0,1-.68.35Z" style="fill:#73bf44;opacity:0.100000001490116;isolation:isolate"/><path id="Path_611" data-name="Path 611" d="M63.56,366.69c-2.36,1.74-12.36,2.53-12.36,2.53s3.68-9.33,6-11.08a5.33,5.33,0,0,1,6.3,8.54Z" style="fill:#73bf44;opacity:0.100000001490116;isolation:isolate"/><path id="Path_612" data-name="Path 612" d="M47.12,325.25c2.11,2,11.91,4.16,11.91,4.16s-2.42-9.74-4.51-11.79a5.33,5.33,0,1,0-8,7.1,6.88,6.88,0,0,0,.55.53Z" style="fill:#73bf44;opacity:0.100000001490116;isolation:isolate"/><path id="Path_613" data-name="Path 613" d="M41.57,349.83c2.62,1.31,12.59.4,12.59.4s-5.19-8.57-7.81-9.87a5.33,5.33,0,0,0-4.78,9.49Z" style="fill:#73bf44;opacity:0.100000001490116;isolation:isolate"/><path id="Path_614" data-name="Path 614" d="M39.44,374.46C41.79,376.2,51.8,377,51.8,377s-3.68-9.33-6-11.08a5.33,5.33,0,0,0-7.06,8,5.13,5.13,0,0,0,.76.56Z" style="fill:#73bf44;opacity:0.100000001490116;isolation:isolate"/></g><path id="Path_615" data-name="Path 615" d="M310,376.43s-7-23.94,1.32-41.56a37.86,37.86,0,0,0,3.06-23.73A63.7,63.7,0,0,0,311,300" style="fill:none;stroke:#545461;stroke-miterlimit:10;stroke-width:2.63571715336514px"/><path id="Path_616" data-name="Path 616" d="M316.19,288.87c0,2.93-5.33,11.44-5.33,11.44s-5.32-8.51-5.32-11.44a5.32,5.32,0,0,1,10.62,0Z" style="fill:#73bf44"/><path id="Path_617" data-name="Path 617" d="M325,305.12c-1.59,2.46-10.68,6.72-10.68,6.72s.17-10,1.76-12.49a5.33,5.33,0,0,1,9.33,5.14,6.29,6.29,0,0,1-.41.64Z" style="fill:#73bf44"/><path id="Path_618" data-name="Path 618" d="M324.61,332.9c-2.62,1.32-12.59.41-12.59.41s5.21-8.58,7.83-9.9a5.33,5.33,0,0,1,5.54,9.1,5.68,5.68,0,0,1-.78.39Z" style="fill:#73bf44"/><path id="Path_619" data-name="Path 619" d="M319.57,353.85c-2.36,1.74-12.36,2.53-12.36,2.53s3.68-9.33,6-11.08a5.33,5.33,0,0,1,6.3,8.54Z" style="fill:#73bf44"/><path id="Path_620" data-name="Path 620" d="M303.14,312.41c2.11,2,11.91,4.16,11.91,4.16s-2.42-9.74-4.51-11.78a5.33,5.33,0,0,0-8,7.09,6.88,6.88,0,0,0,.55.53Z" style="fill:#73bf44"/><path id="Path_621" data-name="Path 621" d="M297.58,337c2.62,1.31,12.59.4,12.59.4s-5.21-8.57-7.83-9.89a5.32,5.32,0,0,0-4.78,9.48Z" style="fill:#73bf44"/><path id="Path_622" data-name="Path 622" d="M295.45,361.61c2.36,1.75,12.36,2.54,12.36,2.54s-3.68-9.33-6-11.08a5.33,5.33,0,0,0-6.3,8.54Z" style="fill:#73bf44"/><path id="Path_623" data-name="Path 623" d="M316.19,288.87c0,2.93-5.33,11.44-5.33,11.44s-5.32-8.51-5.32-11.44a5.32,5.32,0,0,1,10.62,0Z" style="fill:#73bf44;opacity:0.100000001490116;isolation:isolate"/><path id="Path_624" data-name="Path 624" d="M325,305.12c-1.59,2.46-10.68,6.72-10.68,6.72s.17-10,1.76-12.49a5.33,5.33,0,0,1,9.33,5.14,6.29,6.29,0,0,1-.41.64Z" style="fill:#73bf44;opacity:0.100000001490116;isolation:isolate"/><path id="Path_625" data-name="Path 625" d="M324.61,332.9c-2.62,1.32-12.59.41-12.59.41s5.21-8.58,7.83-9.9a5.33,5.33,0,0,1,5.54,9.1,5.68,5.68,0,0,1-.78.39Z" style="fill:#73bf44;opacity:0.100000001490116;isolation:isolate"/><path id="Path_626" data-name="Path 626" d="M319.57,353.85c-2.36,1.74-12.36,2.53-12.36,2.53s3.68-9.33,6-11.08a5.33,5.33,0,0,1,6.3,8.54Z" style="fill:#73bf44;opacity:0.100000001490116;isolation:isolate"/><path id="Path_627" data-name="Path 627" d="M303.14,312.41c2.11,2,11.91,4.16,11.91,4.16s-2.42-9.74-4.51-11.78a5.33,5.33,0,0,0-8,7.09,6.88,6.88,0,0,0,.55.53Z" style="fill:#73bf44;opacity:0.100000001490116;isolation:isolate"/><path id="Path_628" data-name="Path 628" d="M297.58,337c2.62,1.31,12.59.4,12.59.4s-5.21-8.57-7.83-9.89a5.32,5.32,0,0,0-4.78,9.48Z" style="fill:#73bf44;opacity:0.100000001490116;isolation:isolate"/><path id="Path_629" data-name="Path 629" d="M295.45,361.61c2.36,1.75,12.36,2.54,12.36,2.54s-3.68-9.33-6-11.08a5.33,5.33,0,0,0-6.3,8.54Z" style="fill:#73bf44;opacity:0.100000001490116;isolation:isolate"/><path id="Path_630" data-name="Path 630" d="M344.47,103.25h-3.05a2.13,2.13,0,0,0,.22-4.26H316.77a2.13,2.13,0,0,0,0,4.26h3a2.13,2.13,0,0,0,0,4.25h-4.25a2.13,2.13,0,0,0-.22,4.26h24.86a2.13,2.13,0,0,0,.21-4.26h4.07a2.13,2.13,0,0,0,0-4.25Z" style="fill:#dee3f3;opacity:0.5;isolation:isolate"/><path id="Path_631" data-name="Path 631" d="M202,115.66h-2.32a1.62,1.62,0,0,0,.19-3.24H180.93a1.62,1.62,0,0,0,0,3.24h2.31a1.62,1.62,0,1,0-.18,3.24H180a1.62,1.62,0,1,0-.19,3.24h18.93a1.62,1.62,0,1,0,.19-3.24H202a1.62,1.62,0,0,0,0-3.24Z" style="fill:#dee3f3;opacity:0.5;isolation:isolate"/><path id="Path_654" data-name="Path 654" d="M80.26,395.05S68,392.58,64.69,389.31s-18-9-19.67-4.92-22.12,18-8.19,20.49,32.78,3.28,36.87,1.64S80.26,395.05,80.26,395.05Z" style="fill:#a9a8a9"/><path id="Path_655" data-name="Path 655" d="M36.83,403.35c13.93,2.46,32.77,3.28,36.87,1.64,3.12-1.25,5.29-7.26,6.15-10l.41.09s-2.46,9.83-6.56,11.46-22.94.82-36.87-1.64c-4-.71-5.17-2.37-4.74-4.48C32.43,401.75,33.84,402.83,36.83,403.35Z" style="opacity:0.200000002980232;isolation:isolate"/><path id="Path_656" data-name="Path 656" d="M453.38,348.86s4.06,5.33-1.87,13.31-10.82,14.78-8.84,19.77c0,0,8.95-14.88,16.23-15.09S461.4,357.81,453.38,348.86Z" style="fill:#73bf44"/><path id="Path_657" data-name="Path 657" d="M453.38,348.86a6.36,6.36,0,0,1,.83,1.67c7.11,8.35,10.89,16.14,4.06,16.34-6.36.19-14,11.56-15.82,14.44a5,5,0,0,0,.22.65s8.94-14.88,16.23-15.08S461.4,357.81,453.38,348.86Z" style="opacity:0.100000001490116;isolation:isolate"/><path id="Path_658" data-name="Path 658" d="M460.93,355.62c0,1.87-.21,3.39-.49,3.39s-.48-1.51-.48-3.39.26-1,.52-1S460.93,353.76,460.93,355.62Z" style="fill:#ffd139"/><path id="Path_659" data-name="Path 659" d="M463.52,357.86c-1.64.89-3.07,1.45-3.19,1.2s1.1-1.13,2.74-2,1-.24,1.12,0S465.16,357,463.52,357.86Z" style="fill:#ffd139"/><path id="Path_660" data-name="Path 660" d="M432,348.86s-4.06,5.33,1.87,13.31,10.83,14.78,8.85,19.77c0,0-8.95-14.88-16.24-15.09S423.94,357.81,432,348.86Z" style="fill:#73bf44"/><path id="Path_661" data-name="Path 661" d="M432,348.86a7,7,0,0,0-.83,1.67c-7.11,8.35-10.89,16.14-4.06,16.34,6.36.19,14,11.56,15.83,14.44-.06.22-.14.44-.22.65,0,0-8.95-14.88-16.23-15.08S423.94,357.81,432,348.86Z" style="opacity:0.100000001490116;isolation:isolate"/><path id="Path_662" data-name="Path 662" d="M424.41,355.62c0,1.87.2,3.39.48,3.39s.48-1.51.48-3.39-.26-1-.51-1S424.41,353.76,424.41,355.62Z" style="fill:#ffd139"/><path id="Path_663" data-name="Path 663" d="M421.82,357.86c1.64.89,3.07,1.45,3.19,1.2s-1.11-1.13-2.75-2-1-.24-1.12,0S420.17,357,421.82,357.86Z" style="fill:#ffd139"/><path id="Path_664" data-name="Path 664" d="M425.7,381.26s11.35-.35,14.76-2.79,17.43-5.33,18.3-1.45,17.05,19.42,4.24,19.53-29.76-2-33.17-4.08S425.7,381.26,425.7,381.26Z" style="fill:#a9a8a9"/><path id="Path_665" data-name="Path 665" d="M463.23,395.2c-12.81.1-29.76-2-33.17-4.07-2.6-1.58-3.64-7.27-4-9.89h-.38s.72,9.16,4.13,11.23,20.37,4.18,33.17,4.08c3.7,0,5-1.35,4.91-3.3C467.4,394.44,466,395.18,463.23,395.2Z" style="opacity:0.200000002980232;isolation:isolate"/><path id="Path_666" data-name="Path 666" d="M106.19,132h-3a2.13,2.13,0,0,0,.22-4.26H78.51a2.13,2.13,0,0,0,0,4.26h3a2.13,2.13,0,0,0,0,4.25H77.29a2.13,2.13,0,0,0,0,4.26h24.65a2.13,2.13,0,0,0,.21-4.26h4a2.13,2.13,0,0,0,0-4.25Z" style="fill:#dee3f3;opacity:0.5;isolation:isolate"/></g></svg>