<svg id="Layer_1" data-name="Layer 1" xmlns="http://www.w3.org/2000/svg" xmlns:xlink="http://www.w3.org/1999/xlink" viewBox="0 0 512 512"><defs><linearGradient id="linear-gradient" x1="1012.44" y1="-682.97" x2="1012.44" y2="-681.97" gradientTransform="matrix(309.77, 0, 0, -310.97, -313372.12, -211975.92)" gradientUnits="userSpaceOnUse"><stop offset="0" stop-color="gray" stop-opacity="0.25"/><stop offset="0.54" stop-color="gray" stop-opacity="0.12"/><stop offset="1" stop-color="gray" stop-opacity="0.1"/></linearGradient><linearGradient id="linear-gradient-2" x1="1012.48" y1="-682.1" x2="1012.48" y2="-683.1" gradientTransform="matrix(313.64, 0, 0, -303.09, -317298.27, -206631.8)" gradientUnits="userSpaceOnUse"><stop offset="0" stop-color="#6fc619"/><stop offset="1" stop-color="#9feb53"/></linearGradient><linearGradient id="linear-gradient-3" x1="1012.76" y1="-697.89" x2="1012.76" y2="-696.89" gradientTransform="matrix(346.48, 0, 0, -77.69, -350650.47, -53916.36)" xlink:href="#linear-gradient"/></defs><g id="planet"><ellipse id="Ellipse_20" data-name="Ellipse 20" cx="251.03" cy="254.43" rx="154.88" ry="155.49" style="fill:url(#linear-gradient)"/><ellipse id="Ellipse_21" data-name="Ellipse 21" cx="256.91" cy="254.43" rx="156.82" ry="151.54" style="fill:url(#linear-gradient-2)"/><circle id="Ellipse_22" data-name="Ellipse 22" cx="202.41" cy="166.74" r="19.48" style="opacity:0.05000000074505806;isolation:isolate"/><circle id="Ellipse_23" data-name="Ellipse 23" cx="260.12" cy="367.13" r="19.48" style="opacity:0.05000000074505806;isolation:isolate"/><circle id="Ellipse_24" data-name="Ellipse 24" cx="278.93" cy="233.01" r="39.83" style="opacity:0.05000000074505806;isolation:isolate"/><path id="Path_43" data-name="Path 43" d="M312.11,300.88c-19.09,0-39.4-.94-60.16-2.84-46.15-4.21-89.17-12.62-121.12-23.67-32.19-11.14-49.39-23.73-48.39-35.44.5-5.93,5.56-11.23,15-15.74l.48,1.12c-9,4.31-13.86,9.27-14.32,14.73s3.53,11.34,11.89,17.29c8.21,5.85,20.22,11.52,35.69,16.89,31.87,11,74.79,19.41,120.85,23.62s89.74,3.72,123-1.37c16.13-2.48,28.92-5.88,38-10.14,9.24-4.34,14.16-9.35,14.63-14.88.54-6.29-5-13.19-15.9-19.95l.61-1.05c11.53,7.11,17.07,14.22,16.48,21.11-1,11.72-20,21-53.64,26.13C356.91,299.47,335.4,300.88,312.11,300.88Z" style="fill:url(#linear-gradient-3)"/><path id="Path_44" data-name="Path 44" d="M412.06,248.77c10.91,6.74,16.77,13.75,16.18,20.53-2,23.58-80.91,35.64-176.24,26.94S81,261.37,83.05,237.79c.48-5.82,5.69-10.92,14.67-15.23" style="fill:none;stroke:#bdbdbd;stroke-miterlimit:10;stroke-width:3px;opacity:0.5;isolation:isolate"/><path id="Path_122" data-name="Path 122" d="M401.72,318s25.12,30.93,7.85,40.76-118.3-29.3-132.26-35.32-28.4-12.81-43.08-20.31c-88.1-45.06-147.08-96.77-140-119.74,2.66-5.2,9.76-10.16,21.26-9.44" style="fill:none"/><path id="Path_46" data-name="Path 46" d="M116,174.49c-10.21.5-17.11,3.24-19.77,8.45-10.78,21.07,51.9,74.68,140,119.74,14.67,7.5,29.13,14.3,43.08,20.31s112.5,44.16,129.77,34.33-7.22-41.9-7.22-41.9" style="fill:none;stroke:#bdbdbd;stroke-miterlimit:10;stroke-width:3px"/><polygon points="118.92 398.31 115.2 398.31 115.2 394.58 113.6 394.58 113.6 398.31 109.87 398.31 109.87 399.91 113.6 399.91 113.6 403.63 115.2 403.63 115.2 399.91 118.92 399.91 118.92 398.31" style="fill:#47e6b1;opacity:0.5"/><polygon points="432.1 81.8 428.37 81.8 428.37 78.07 426.77 78.07 426.77 81.8 423.04 81.8 423.04 83.4 426.77 83.4 426.77 87.13 428.37 87.13 428.37 83.4 432.1 83.4 432.1 81.8" style="fill:#47e6b1;opacity:0.5"/><polygon points="124.25 103.64 120.52 103.64 120.52 99.91 118.92 99.91 118.92 103.64 115.2 103.64 115.2 105.24 118.92 105.24 118.92 108.97 120.52 108.97 120.52 105.24 124.25 105.24 124.25 103.64" style="fill:#47e6b1;opacity:0.5"/><path id="Path_49" data-name="Path 49" d="M163.47,425.63a2,2,0,0,1-1.09-2.36.85.85,0,0,0,0-.22h0a1,1,0,0,0-1-1,1,1,0,0,0-.79.37h0a.72.72,0,0,0-.11.19,2,2,0,0,1-2.36,1.1,1,1,0,0,0-.22-.05h0a1,1,0,0,0-1,1,1,1,0,0,0,.37.79h0a.72.72,0,0,0,.19.11,2,2,0,0,1,1.09,2.37.78.78,0,0,0,0,.22h0a1,1,0,0,0,1,1,1,1,0,0,0,.79-.36h0a1.28,1.28,0,0,0,.11-.2,2,2,0,0,1,2.36-1.09.85.85,0,0,0,.22,0h0a1,1,0,0,0,1-1,1,1,0,0,0-.37-.8h0A1.18,1.18,0,0,0,163.47,425.63Z" style="fill:#4d8af0;opacity:0.5;isolation:isolate"/><path id="Path_50" data-name="Path 50" d="M258.11,432a2,2,0,0,1-1.09-2.36.78.78,0,0,0,0-.22h0a1,1,0,0,0-1-1,1,1,0,0,0-.8.37h0l-.11.19a1.94,1.94,0,0,1-2.36,1.1.87.87,0,0,0-.22-.05h0a1,1,0,0,0-1,1,1,1,0,0,0,.37.8h0a.69.69,0,0,0,.19.1,2,2,0,0,1,1.1,2.37,1.74,1.74,0,0,0-.05.22h0a1,1,0,0,0,1.77.65h0a1.18,1.18,0,0,0,.11-.19,2,2,0,0,1,2.36-1.1.87.87,0,0,0,.22.05h0a1,1,0,0,0,.65-1.76h0A.82.82,0,0,0,258.11,432Z" style="fill:#4d8af0;opacity:0.5;isolation:isolate"/><path id="Path_51" data-name="Path 51" d="M444.72,182.25a2,2,0,0,1-1.1-2.37.79.79,0,0,0,.05-.22h0a1,1,0,0,0-1.76-.65h0a.78.78,0,0,0-.11.2,2,2,0,0,1-2.37,1.09.78.78,0,0,0-.22,0h0a1,1,0,0,0-1,1,1,1,0,0,0,.36.8h0l.2.11a2,2,0,0,1,1.09,2.36.85.85,0,0,0,0,.22h0a1,1,0,0,0,1.76.65h0a1.18,1.18,0,0,0,.11-.19,2,2,0,0,1,2.36-1.1.87.87,0,0,0,.22.05h0a1,1,0,0,0,1-1,1,1,0,0,0-.37-.79h0a.72.72,0,0,0-.19-.11Z" style="fill:#4d8af0;opacity:0.5;isolation:isolate"/><path id="Path_52" data-name="Path 52" d="M76.78,319.11a2,2,0,0,1-1.09-2.37.79.79,0,0,0,0-.22h0a1,1,0,0,0-1.77-.65h0a1.28,1.28,0,0,0-.11.2,2,2,0,0,1-2.36,1.09l-.22-.05h0a1,1,0,0,0-1,1,1,1,0,0,0,.37.8h0l.19.11a1.94,1.94,0,0,1,1.1,2.36.79.79,0,0,0,0,.22h0a1,1,0,0,0,1,1,1,1,0,0,0,.8-.37h0a.87.87,0,0,0,.1-.19,2,2,0,0,1,2.37-1.1.79.79,0,0,0,.22.05h0a1,1,0,0,0,.65-1.77h0A.75.75,0,0,0,76.78,319.11Z" style="fill:#4d8af0;opacity:0.5;isolation:isolate"/><circle id="Ellipse_25" data-name="Ellipse 25" cx="69.92" cy="191.38" r="3.19" style="fill:#f55f44;opacity:0.5;isolation:isolate"/><circle id="Ellipse_26" data-name="Ellipse 26" cx="322.84" cy="87.66" r="3.19" style="fill:#4d8af0;opacity:0.5;isolation:isolate"/><circle id="Ellipse_27" data-name="Ellipse 27" cx="152.15" cy="79.67" r="3.19" style="fill:#47e6b1;opacity:0.5;isolation:isolate"/><circle id="Ellipse_28" data-name="Ellipse 28" cx="381.8" cy="409.49" r="3.19" style="fill:#f55f44;opacity:0.5;isolation:isolate"/></g></svg>