<svg id="Layer_1" data-name="Layer 1" xmlns="http://www.w3.org/2000/svg" xmlns:xlink="http://www.w3.org/1999/xlink" viewBox="0 0 80 80"><defs><linearGradient id="linear-gradient" x1="478.7" y1="-708.77" x2="478.7" y2="-707.54" gradientTransform="matrix(60.4, 7.42, 6.09, -49.58, -24562.33, -38615.44)" gradientUnits="userSpaceOnUse"><stop offset="0" stop-color="gray" stop-opacity="0.25"/><stop offset="0.54" stop-color="gray" stop-opacity="0.12"/><stop offset="1" stop-color="gray" stop-opacity="0.1"/></linearGradient></defs><g id="car_out" data-name="car out"><path id="Path_53" data-name="Path 53" d="M49.34,19.94a3.79,3.79,0,0,0-5.26,1l-.48.69-.82-.56-7.34-5-1.6-1.1a1.43,1.43,0,0,0-.75-.25c-7.21-3.39-13.81.62-18.62,7.62h0a24.82,24.82,0,0,0-3.71,7.89l-.08-.06a12.48,12.48,0,0,0,.44,8.6l.16-.23a12.26,12.26,0,0,0,2.47,3.58,1.16,1.16,0,0,0,.5.82l10.05,6.9-1,1.47a3.79,3.79,0,0,0,1,5.26h0l3.15-4.62,12.4,8.5,1.07-1.56L42,57.27l1.61-2.34h0l-3.72,5.42,5.93,4.11c7.22,5,13.74.53,19-6.91v-.05l.33-.46h0v0h0l.28-.42h0c5.09-7.6,6.87-15.27-.38-20.24l-5.91-4-4.31,6.29h0L57,35.4l1-1.47,1.13-1.65L46.73,23.75l2.61-3.81ZM25.61,46.09l0,0h0Z" style="fill:url(#linear-gradient)"/><rect id="Rectangle_39" data-name="Rectangle 39" x="28.74" y="34.91" width="28.46" height="14.23" transform="translate(-16 53.68) rotate(-55.54)" style="fill:#4f617d"/><path id="Path_54" data-name="Path 54" d="M63.62,56.09V56c-5,7.29-11.26,11.76-18.21,7L39.83,59.2,58,32.79l5.58,3.83C70.51,41.39,68.63,48.79,63.62,56.09Z" style="fill:#ff656a"/><path id="Path_56" data-name="Path 56" d="M58.2,62.14a27.77,27.77,0,0,0,5.43-6.07A29.53,29.53,0,0,0,67,49.83l-2.39-1.64L56.06,60.65Z" style="fill:#4a5c81"/><path id="Path_57" data-name="Path 57" d="M43.31,54.12,53.88,38.71l.43.3a2.14,2.14,0,0,1,.56,3h0L46.72,53.87a2.15,2.15,0,0,1-3,.55l-.43-.29Z" style="fill:#4a5c81"/><path id="Path_58" data-name="Path 58" d="M16.46,39.79l.4-.58L41.79,56.32l-2,2.94L17.2,43.77a2.87,2.87,0,0,1-.74-4Z" style="fill:#ff6469"/><path id="Path_59" data-name="Path 59" d="M31,18.58,31.4,18a2.87,2.87,0,0,1,4-.74L58,32.76l-2,2.93Z" style="fill:#ff6469"/><path id="Path_60" data-name="Path 60" d="M42.59,22.18,24.48,48.59l-6.93-4.74C9.92,38.62,11,30.63,16,23.34h0C21,16,28,12.21,35.69,17.44Z" style="fill:#ff656a"/><path id="Path_61" data-name="Path 61" d="M12.79,38.8l3.66-5.31-4.06-2.78A11.68,11.68,0,0,0,12.79,38.8Z" style="fill:#fff6d5"/><path id="Path_62" data-name="Path 62" d="M29.07,15.06l-3.65,5.3-4.06-2.78A11.8,11.8,0,0,1,29.07,15.06Z" style="fill:#fff6d5"/><path id="Path_63" data-name="Path 63" d="M23.85,51.21l1.4-2.05,2.93,2-3,4.41-.56-.39a2.85,2.85,0,0,1-.76-4Z" style="fill:#ff6469"/><path id="Path_64" data-name="Path 64" d="M48.75,21.1l-3,4.41-2.93-2,1.4-2a2.87,2.87,0,0,1,4-.75Z" style="fill:#ff6469"/><path id="Path_65" data-name="Path 65" d="M44,26.37,28.82,48.46,19.35,37.64A5,5,0,0,1,19,31.47l5.63-8.21a5,5,0,0,1,5.91-1.87Z" style="fill:#53678b"/><path id="Path_66" data-name="Path 66" d="M29.46,47.7c-4.87-3.33-5.77-10.47-2-15.94S38.18,24.57,43,27.89" style="fill:#658bc8"/><path id="Path_67" data-name="Path 67" d="M44.76,27,29.66,49l-2.2-1.51,1.81-1.07L41.68,28.32l.87-2.86Z" style="fill:#ff656a"/><path id="Path_68" data-name="Path 68" d="M44.76,27,29.66,49l-2.2-1.51,1.81-1.07L41.68,28.32l.87-2.86Z" style="opacity:0.05000000074505806;isolation:isolate"/><rect id="Rectangle_40" data-name="Rectangle 40" x="35.86" y="38.68" width="3.55" height="3.55" transform="translate(-17.02 48.59) rotate(-55.54)" style="fill:#53678b"/><ellipse id="Ellipse_29" data-name="Ellipse 29" cx="39.11" cy="41.47" rx="3.55" ry="0.89" transform="translate(-17.21 50.25) rotate(-55.54)" style="fill:#53678b"/><path id="Path_69" data-name="Path 69" d="M45.69,58.9A6.1,6.1,0,0,0,54.54,58" style="opacity:0.05000000074505806;isolation:isolate"/><path id="Path_70" data-name="Path 70" d="M59.28,39.1a6.1,6.1,0,0,1,2.38,8.56" style="opacity:0.05000000074505806;isolation:isolate"/><path id="Path_71" data-name="Path 71" d="M21.18,34.53s.08-6.42,7-10.27" style="opacity:0.05000000074505806;isolation:isolate"/><path id="Path_72" data-name="Path 72" d="M24,36.43S24,30,31,26.16" style="opacity:0.05000000074505806;isolation:isolate"/><circle id="Ellipse_30" data-name="Ellipse 30" cx="29.75" cy="39.37" r="2.67" style="fill:#4a77be"/><circle id="Ellipse_31" data-name="Ellipse 31" cx="34.56" cy="30.79" r="1.78" style="fill:#4a77be"/><path id="Path_73" data-name="Path 73" d="M39.48,38.07l0-.52a1.07,1.07,0,0,1,1-1.16l5.82-.46a1.1,1.1,0,0,1,1.18,1l.13,1.57-6.94.55A1.08,1.08,0,0,1,39.48,38.07Z" style="fill:#cdefff"/><path id="Path_74" data-name="Path 74" d="M42.7,39.39l-.21-2.65,3.18-.25a2.13,2.13,0,0,1,2.3,2L48,39Z" style="opacity:0.05000000074505806;isolation:isolate"/><path id="Path_75" data-name="Path 75" d="M36.58,49.89,39.21,46l4.56,3.13L41.13,53a2.2,2.2,0,0,1-3.07.57L37.17,53a2.2,2.2,0,0,1-.61-3.06Z" style="fill:#cdefff"/><path id="Path_76" data-name="Path 76" d="M41.3,52.54l-1.11,1.78c-1.15,1.47-3.52,1.62-5.39.34l-2.17-1.49,1.56-2.27Z" style="fill:#cdefff"/><path id="Path_77" data-name="Path 77" d="M28.72,49.18l.3-.44a1.11,1.11,0,0,1,1.54-.29l3.62,2.49-1.55,2.27L29,50.72A1.12,1.12,0,0,1,28.72,49.18Z" style="fill:#cdefff"/><path id="Path_78" data-name="Path 78" d="M41,48.86a4.09,4.09,0,0,0,2.56.72l.16-.24-4.43-3.05A4.13,4.13,0,0,0,41,48.86Z" style="opacity:0.05000000074505806;isolation:isolate"/><path id="Path_79" data-name="Path 79" d="M49.57,40.57l-2.63,3.84L42.4,41.3,45,37.46a2.21,2.21,0,0,1,3.07-.58l.89.61a2.21,2.21,0,0,1,.58,3.07h0Z" style="fill:#cdefff"/><path id="Path_80" data-name="Path 80" d="M45.7,41.94a4.06,4.06,0,0,1,1.6,2.13l-.16.24-4.43-3.05a4.14,4.14,0,0,1,3,.67Z" style="opacity:0.05000000074505806;isolation:isolate"/><circle id="Ellipse_32" data-name="Ellipse 32" cx="43.35" cy="45.28" r="4.13" style="fill:#cdefff"/><circle id="Ellipse_33" data-name="Ellipse 33" cx="43.14" cy="45.31" r="4.13" style="fill:#cdefff"/><path id="Path_81" data-name="Path 81" d="M39.72,42.93a4.11,4.11,0,0,0-.32,4.12,4.13,4.13,0,0,0,4-5.89A4.11,4.11,0,0,0,39.72,42.93Z" style="fill:#658bc8"/></g></svg>