<svg id="Layer_1" data-name="Layer 1" xmlns="http://www.w3.org/2000/svg" xmlns:xlink="http://www.w3.org/1999/xlink" viewBox="0 0 80 80"><defs><linearGradient id="linear-gradient" x1="473.16" y1="-817.13" x2="473.16" y2="-816.13" gradientTransform="matrix(50.67, -1.78, -1.16, -33.21, -24884.66, -26240.38)" gradientUnits="userSpaceOnUse"><stop offset="0" stop-color="gray" stop-opacity="0.25"/><stop offset="0.54" stop-color="gray" stop-opacity="0.12"/><stop offset="1" stop-color="gray" stop-opacity="0.1"/></linearGradient></defs><g id="controller_out" data-name="controller out"><path id="Path_86" data-name="Path 86" d="M19.7,39.91c-.76.71-4.23,1.42-4.23,1.42s.89-3.43,1.64-4.15a1.88,1.88,0,1,1,2.64,2.68.12.12,0,0,1-.05,0Z" style="fill:#70c61a"/><path id="Path_87" data-name="Path 87" d="M20.13,47.53c-.62.83-3.93,2.11-3.93,2.11s.3-3.54.92-4.37a1.88,1.88,0,1,1,3,2.26Z" style="fill:#70c61a"/><path id="Path_93" data-name="Path 93" d="M19.7,39.91c-.76.71-4.23,1.42-4.23,1.42s.89-3.43,1.64-4.15a1.88,1.88,0,1,1,2.64,2.68.12.12,0,0,1-.05,0Z" style="fill:#fc6681"/><path id="Path_94" data-name="Path 94" d="M20.13,47.53c-.62.83-3.93,2.11-3.93,2.11s.3-3.54.92-4.37a1.88,1.88,0,1,1,3,2.26Z" style="fill:#fc6681"/><path id="Path_102" data-name="Path 102" d="M65.3,46.05s-1.12-13-4-17.49c0,0-2.13-3.57-3.83-4.58l0-.42c-2.78-1.79-6.06.21-6.06.21V24l-.68.61-3.14.1a1.52,1.52,0,0,0-1.18-.51l-14.34.51a1.51,1.51,0,0,0-1.1.52l-3.26.12a2.25,2.25,0,0,0-.71-.43v-.25c-2.79-1.79-6.07.21-6.07.21l0,.51a.8.8,0,0,0-.21.2S18,27.49,17.48,29.82c0,0-3,10.27-2.82,18.22s3.31,9,4.93,9.12,4.46-.23,7-7.37l1-4.16s.13-2.45,2.69-1,4.72-1,4.72-1l9.42-.33s3.2,1.84,6,.2c0,0,1.07-1.5,2.29,3.41,0,0,3.56,10.08,8.48,8.86S65.3,46.05,65.3,46.05Z" style="fill:url(#linear-gradient)"/><path id="Path_103" data-name="Path 103" d="M21.29,25.89l0-.75s3.22-2,5.95-.21l0,.68Z" style="fill:#535461"/><path id="Path_104" data-name="Path 104" d="M51.19,24.84l0-.75s3.22-2,6-.21l0,.69Z" style="fill:#535461"/><path id="Path_105" data-name="Path 105" d="M21.29,25.89l0-.75s3.22-2,5.95-.21l0,.68Z" style="opacity:0.10000000149011612;isolation:isolate"/><path id="Path_106" data-name="Path 106" d="M51.19,24.84l0-.75s3.22-2,6-.21l0,.69Z" style="opacity:0.10000000149011612;isolation:isolate"/><path id="Path_107" data-name="Path 107" d="M31.14,25.48l-3.21.11s-.86-.93-3.59-.77-3.25,1-3.25,1S18.45,27.74,17.91,30c0,0-3,10.06-2.76,17.86S18.4,56.67,20,56.82s4.37-.22,6.87-7.22l1-4.08s.12-2.4,2.64-1,4.62-1,4.62-1l9.23-.32s3.15,1.81,5.9.21c0,0,1.05-1.48,2.24,3.34,0,0,3.5,9.88,8.32,8.68s4-9.52,4-9.52-1.1-12.73-3.92-17.16c0,0-2.73-4.59-4.45-4.74,0,0-3.72-.56-5.13.11l-.8.71Z" style="fill:#535461"/><circle id="Ellipse_35" data-name="Ellipse 35" cx="23.92" cy="32.44" r="5.95" style="fill:#e2e2ec"/><circle id="Ellipse_36" data-name="Ellipse 36" cx="54.97" cy="31.35" r="5.95" style="fill:#e2e2ec"/><path id="Path_108" data-name="Path 108" d="M24.91,31.08l-.77.73a.38.38,0,0,1-.49,0l-.82-.67a.35.35,0,0,1-.13-.27L22.63,29a.38.38,0,0,1,.36-.38l1.59-.06a.38.38,0,0,1,.38.36h0L25,30.8A.36.36,0,0,1,24.91,31.08Z" style="fill:#535461"/><path id="Path_109" data-name="Path 109" d="M25,33.73l-.82-.67a.35.35,0,0,0-.48,0l-.78.72a.43.43,0,0,0-.11.28L22.88,36a.38.38,0,0,0,.38.36h0l1.59-.06a.36.36,0,0,0,.36-.38h0L25.14,34A.35.35,0,0,0,25,33.73Z" style="fill:#535461"/><path id="Path_110" data-name="Path 110" d="M22.63,33.52l.67-.82a.37.37,0,0,0,0-.49l-.72-.77a.37.37,0,0,0-.28-.1l-1.93.06a.37.37,0,0,0-.35.38l.05,1.59a.37.37,0,0,0,.38.36h0l1.93-.07A.33.33,0,0,0,22.63,33.52Z" style="fill:#535461"/><path id="Path_111" data-name="Path 111" d="M25.28,33.43l-.72-.77a.37.37,0,0,1,0-.49l.67-.82a.37.37,0,0,1,.27-.13l1.93-.07a.38.38,0,0,1,.38.36h0l.06,1.59a.38.38,0,0,1-.36.38h0l-1.93.07A.38.38,0,0,1,25.28,33.43Z" style="fill:#535461"/><path id="Path_112" data-name="Path 112" d="M22.74,28.1,24.79,28l-1.05-.86Z" style="fill:none;stroke:#535461;stroke-miterlimit:9.996129379584321;stroke-width:1.9992258759168642px"/><path id="Path_113" data-name="Path 113" d="M23.05,36.86l2.05-.08-1,.93Z" style="fill:none;stroke:#535461;stroke-miterlimit:9.996129379584321;stroke-width:1.9992258759168642px"/><path id="Path_114" data-name="Path 114" d="M19.51,31.57l.07,2-.93-1Z" style="fill:none;stroke:#535461;stroke-miterlimit:9.996129379584321;stroke-width:1.9992258759168642px"/><path id="Path_115" data-name="Path 115" d="M28.26,31.26l.07,2.05.86-1.05Z" style="fill:none;stroke:#535461;stroke-miterlimit:9.996129379584321;stroke-width:1.9992258759168642px"/><circle id="Ellipse_37" data-name="Ellipse 37" cx="32.22" cy="38.66" r="4.31" style="fill:#e2e2ec"/><circle id="Ellipse_38" data-name="Ellipse 38" cx="32.06" cy="37.98" r="2.87" style="fill:#535461"/><circle id="Ellipse_39" data-name="Ellipse 39" cx="47.13" cy="38.13" r="4.31" style="fill:#e2e2ec"/><circle id="Ellipse_40" data-name="Ellipse 40" cx="46.97" cy="37.46" r="2.87" style="fill:#535461"/><circle id="Ellipse_41" data-name="Ellipse 41" cx="32.06" cy="37.98" r="1.92" style="fill:none;stroke:#000;stroke-miterlimit:9.996129379584321;stroke-width:1.9992258759168642px;opacity:0.10000000149011612;isolation:isolate"/><circle id="Ellipse_42" data-name="Ellipse 42" cx="46.97" cy="37.46" r="1.92" style="fill:none;stroke:#000;stroke-miterlimit:9.996129379584321;stroke-width:1.9992258759168642px;opacity:0.10000000149011612;isolation:isolate"/><circle id="Ellipse_43" data-name="Ellipse 43" cx="39.83" cy="38.87" r="1.23" style="fill:#e2e2ec"/><circle id="Ellipse_44" data-name="Ellipse 44" cx="37.8" cy="34.83" r="0.27" style="fill:#e2e2ec"/><circle id="Ellipse_45" data-name="Ellipse 45" cx="38.81" cy="34.79" r="0.27" style="fill:#e2e2ec"/><circle id="Ellipse_46" data-name="Ellipse 46" cx="38.72" cy="36.07" r="0.27" style="fill:#e2e2ec"/><circle id="Ellipse_47" data-name="Ellipse 47" cx="39.66" cy="36.07" r="0.27" style="fill:#e2e2ec"/><circle id="Ellipse_48" data-name="Ellipse 48" cx="40.6" cy="36.01" r="0.27" style="fill:#e2e2ec"/><circle id="Ellipse_49" data-name="Ellipse 49" cx="38.3" cy="35.48" r="0.27" style="fill:#e2e2ec"/><circle id="Ellipse_50" data-name="Ellipse 50" cx="39.16" cy="35.47" r="0.27" style="fill:#e2e2ec"/><circle id="Ellipse_51" data-name="Ellipse 51" cx="40.05" cy="35.44" r="0.27" style="fill:#e2e2ec"/><circle id="Ellipse_52" data-name="Ellipse 52" cx="40.98" cy="35.39" r="0.27" style="fill:#e2e2ec"/><circle id="Ellipse_53" data-name="Ellipse 53" cx="39.62" cy="34.77" r="0.27" style="fill:#e2e2ec"/><circle id="Ellipse_54" data-name="Ellipse 54" cx="40.57" cy="34.73" r="0.27" style="fill:#e2e2ec"/><circle id="Ellipse_55" data-name="Ellipse 55" cx="41.36" cy="34.7" r="0.27" style="fill:#e2e2ec"/><path id="Rectangle_41" data-name="Rectangle 41" d="M29.31,26h0a.76.76,0,0,1,.78.73l0,1.09a.75.75,0,0,1-.73.78h0a.76.76,0,0,1-.78-.73l0-1.09A.74.74,0,0,1,29.31,26Z" style="fill:#e2e2ec"/><path id="Rectangle_42" data-name="Rectangle 42" d="M49.28,25.32h0a.75.75,0,0,1,.78.73l0,1.09a.74.74,0,0,1-.72.78h0a.75.75,0,0,1-.78-.73l0-1.09A.75.75,0,0,1,49.28,25.32Z" style="fill:#e2e2ec"/><circle id="Ellipse_56" data-name="Ellipse 56" cx="54.92" cy="27.73" r="1.64" style="fill:#535461"/><circle id="Ellipse_57" data-name="Ellipse 57" cx="51.55" cy="31.34" r="1.64" style="fill:#535461"/><circle id="Ellipse_58" data-name="Ellipse 58" cx="58.66" cy="30.88" r="1.64" style="fill:#535461"/><circle id="Ellipse_59" data-name="Ellipse 59" cx="55.43" cy="34.62" r="1.64" style="fill:#535461"/><rect id="Rectangle_43" data-name="Rectangle 43" x="30.87" y="24.71" width="17.04" height="9.1" rx="4.55" transform="translate(-1 1.4) rotate(-2.01)" style="fill:#e2e2ec"/><path id="Path_116" data-name="Path 116" d="M54,28.44l.9-1.67,1.08,1.61Z" style="fill:none;stroke:#e2e2ec;stroke-miterlimit:9.996129379584321;stroke-width:1.9992258759168642px"/><rect id="Rectangle_44" data-name="Rectangle 44" x="50.69" y="30.58" width="1.71" height="1.51" transform="translate(-1.07 1.82) rotate(-2.01)" style="fill:none;stroke:#e2e2ec;stroke-miterlimit:9.996129379584321;stroke-width:1.9992258759168642px"/><circle id="Ellipse_60" data-name="Ellipse 60" cx="58.66" cy="30.88" r="0.96" style="fill:none;stroke:#e2e2ec;stroke-miterlimit:9.996129379584321;stroke-width:1.9992258759168642px"/><line id="Line_6" data-name="Line 6" x1="54.62" y1="33.88" x2="56.21" y2="35.37" style="fill:none;stroke:#e2e2ec;stroke-miterlimit:9.996129379584321;stroke-width:1.9992258759168642px"/><line id="Line_7" data-name="Line 7" x1="56.19" y1="33.83" x2="54.67" y2="35.39" style="fill:none;stroke:#e2e2ec;stroke-miterlimit:9.996129379584321;stroke-width:1.9992258759168642px"/></g></svg>