<svg id="Layer_1" data-name="Layer 1" xmlns="http://www.w3.org/2000/svg" viewBox="0 0 512 512"><defs><style>.cls-1{fill:#010101;}</style></defs><title>04_parking</title><path id="parking" class="cls-1" d="M500,192H447.78l-31.36-77.88A80,80,0,0,0,342.22,64H169.78a80,80,0,0,0-74.21,50.12L64.21,192H12A12,12,0,0,0,.37,206.91l6,24A12,12,0,0,0,18,240H29.32A94.62,94.62,0,0,0,16,288V424a24,24,0,0,0,24,24H56a24,24,0,0,0,24-24V400H432v24a24,24,0,0,0,24,24h16a24,24,0,0,0,24-24V288a94.65,94.65,0,0,0-13.31-48H494a12,12,0,0,0,11.64-9.09l6-24A12,12,0,0,0,500,192Zm-359.89-60A31.85,31.85,0,0,1,169.78,112H342.22a31.85,31.85,0,0,1,29.68,20.05L396,192H116ZM448,336a16,16,0,0,1-16,16H80a16,16,0,0,1-16-16V288a48.05,48.05,0,0,1,48-48H400a48.05,48.05,0,0,1,48,48ZM128,264c-19.2,0-32,12.76-32,31.91s12.8,31.91,32,31.91,48,3.19,48-16S147.2,264,128,264Zm256,0c-19.2,0-48,28.72-48,47.86s28.8,16,48,16,32-12.76,32-31.91S403.2,264,384,264Z"/></svg>