<svg id="Layer_1" data-name="Layer 1" xmlns="http://www.w3.org/2000/svg" viewBox="0 0 512 512"><defs><style>.cls-1{fill:#010101;}</style></defs><title>05_games</title><path id="games" class="cls-1" d="M204.8,243.2v25.6a6.42,6.42,0,0,1-6.4,6.4H160v38.4a6.42,6.42,0,0,1-6.4,6.4H128a6.42,6.42,0,0,1-6.4-6.4V275.2H83.2a6.42,6.42,0,0,1-6.4-6.4V243.2a6.42,6.42,0,0,1,6.4-6.4h38.4V198.4A6.42,6.42,0,0,1,128,192h25.6a6.42,6.42,0,0,1,6.4,6.4v38.4h38.4A6.42,6.42,0,0,1,204.8,243.2Zm192-51.2a32,32,0,1,0,32,32A32,32,0,0,0,396.8,192Zm-51.2,64a32,32,0,1,0,32,32A32,32,0,0,0,345.6,256Zm25.6-102.4H140.8a102.4,102.4,0,0,0,0,204.8c45,0,68.88-26.64,81.36-38.4h67.68c13,12.24,36.72,38.4,81.36,38.4a102.4,102.4,0,1,0,0-204.8m0-38.4a140.8,140.8,0,1,1-96.64,243.2H237.44A140.8,140.8,0,1,1,140.8,115.2Z"/></svg>