<svg id="Layer_1" data-name="Layer 1" xmlns="http://www.w3.org/2000/svg" viewBox="0 0 512 512"><defs><style>.cls-1{fill:#010101;}</style></defs><title>06_lessons</title><path id="lessons" class="cls-1" d="M256,32C132.26,32,32,132.26,32,256S132.26,480,256,480,480,379.74,480,256,379.74,32,256,32ZM383.72,383.72A180.56,180.56,0,1,1,436.65,256,179.45,179.45,0,0,1,383.72,383.72ZM328.26,227.1a28.91,28.91,0,1,0-28.91-28.91A28.87,28.87,0,0,0,328.26,227.1Zm-144.52,0a28.91,28.91,0,1,0-28.9-28.91A28.88,28.88,0,0,0,183.74,227.1Zm175.59,57.8H152.67a12.12,12.12,0,0,0-12.19,13.55c6.77,53.47,53.2,94.84,109.38,94.84h12.28c56.18,0,102.61-41.37,109.38-94.84a12.12,12.12,0,0,0-12.19-13.55Z"/></svg>