<svg id="Layer_1" data-name="Layer 1" xmlns="http://www.w3.org/2000/svg" viewBox="0 0 512 512"><defs><style>.cls-1{fill:#010101;}</style></defs><title>07_log_out</title><path id="log_out" class="cls-1" d="M96,64h84a12,12,0,0,1,12,12v24a12,12,0,0,1-12,12H96a48,48,0,0,0-48,48V352a48,48,0,0,0,48,48h84a12,12,0,0,1,12,12v24a12,12,0,0,1-12,12H96A96,96,0,0,1,0,352V160A96,96,0,0,1,96,64Zm231.08,19.5-19.6,19.6a11.88,11.88,0,0,0,.2,17.1L420.78,230H172a12,12,0,0,0-12,12v28a12,12,0,0,0,12,12H420.78L307.68,391.69a12.06,12.06,0,0,0-.2,17.1l19.6,19.6a12,12,0,0,0,17,0l164.4-164a12,12,0,0,0,0-17l-164.4-164a12.1,12.1,0,0,0-17,.1Z"/></svg>