<svg xmlns="http://www.w3.org/2000/svg" viewBox="0 0 82 31"><g id="Layer_2" data-name="Layer 2"><path d="M9.59,16.56a8.83,8.83,0,0,1-1.36-.14L18.52,6.13a9.57,9.57,0,1,0,.56,4.73H16.46A7,7,0,0,1,9.59,16.56Zm-7-7A7,7,0,0,1,15.37,5.64l-9.7,9.7A7,7,0,0,1,2.59,9.56ZM30.5,0a9.58,9.58,0,1,0,7,16.15V19h2.59V9.56A9.55,9.55,0,0,0,30.52,0Zm0,16.56a7,7,0,1,1,7-7h0A7,7,0,0,1,30.5,16.56ZM82,.22V21.75h0a9.57,9.57,0,0,1-19.05.95H65.5a7,7,0,0,0,13.86-1.29V16.14A9.58,9.58,0,0,1,62.81,9.56V.22H65.4V9.56a7,7,0,1,0,14,0V.22ZM60.79,11.39a9.57,9.57,0,0,1-18.42,1.43h2.82a7,7,0,0,0,13-1.57c-5-.32-14.86-1.07-15.75-2.86l0-.09A9.58,9.58,0,0,1,60.62,5.69c-.67,0-2,0-3,0A7,7,0,0,0,45.31,7.14c4.52,1.17,13.32,1.38,15.21,2.07C60.92,9.36,61.1,9.68,60.79,11.39Z" style="fill:#231f20"/></g></svg>